<?xml version="1.0" encoding="UTF-8"?>
<!DOCTYPE svg PUBLIC "-//W3C//DTD SVG 1.1//EN" "http://www.w3.org/Graphics/SVG/1.1/DTD/svg11.dtd">
<svg xmlns="http://www.w3.org/2000/svg" version="1.1" width="575px" height="565px" style="shape-rendering:geometricPrecision; text-rendering:geometricPrecision; image-rendering:optimizeQuality; fill-rule:evenodd; clip-rule:evenodd" xmlns:xlink="http://www.w3.org/1999/xlink">
<g><path style="opacity:0.998" fill="#496a6d" d="M 39.5,-0.5 C 204.5,-0.5 369.5,-0.5 534.5,-0.5C 555.5,5.16667 568.833,18.5 574.5,39.5C 574.5,201.167 574.5,362.833 574.5,524.5C 568.833,545.5 555.5,558.833 534.5,564.5C 369.5,564.5 204.5,564.5 39.5,564.5C 18.5,558.833 5.16667,545.5 -0.5,524.5C -0.5,362.833 -0.5,201.167 -0.5,39.5C 5.16667,18.5 18.5,5.16667 39.5,-0.5 Z"/></g>
<g><path style="opacity:1" fill="#000000" d="M 41.5,9.5 C 204.167,9.33333 366.834,9.5 529.5,10C 547.674,13.1732 559.174,23.6732 564,41.5C 564.667,200.833 564.667,360.167 564,519.5C 560.518,538.982 549.018,550.482 529.5,554C 367.167,554.667 204.833,554.667 42.5,554C 24.5803,549.746 13.747,538.58 10,520.5C 9.33333,361.167 9.33333,201.833 10,42.5C 14.2498,25.4191 24.7498,14.4191 41.5,9.5 Z"/></g>
<g><path style="opacity:1" fill="#1f91d8" d="M 266.5,74.5 C 299.683,71.551 332.016,75.3844 363.5,86C 366.855,87.1176 370.022,88.6176 373,90.5C 373.483,89.552 373.649,88.552 373.5,87.5C 377.833,87.5 382.167,87.5 386.5,87.5C 386.18,90.8984 386.513,94.2317 387.5,97.5C 424.594,120.001 444.594,153.001 447.5,196.5C 448.833,196.5 450.167,196.5 451.5,196.5C 451.5,200.833 451.5,205.167 451.5,209.5C 447.167,209.5 442.833,209.5 438.5,209.5C 438.5,208.167 438.5,206.833 438.5,205.5C 411.5,205.5 384.5,205.5 357.5,205.5C 357.5,206.833 357.5,208.167 357.5,209.5C 353.167,209.5 348.833,209.5 344.5,209.5C 344.5,205.167 344.5,200.833 344.5,196.5C 345.5,196.5 346.5,196.5 347.5,196.5C 343.099,177.934 331.433,166.434 312.5,162C 307.863,161.171 303.196,160.671 298.5,160.5C 298.5,161.833 298.5,163.167 298.5,164.5C 294.167,164.5 289.833,164.5 285.5,164.5C 285.5,163.167 285.5,161.833 285.5,160.5C 267.02,159.37 252.187,166.037 241,180.5C 238.502,183.101 239.002,184.435 242.5,184.5C 242.5,188.833 242.5,193.167 242.5,197.5C 240.833,197.5 239.167,197.5 237.5,197.5C 238.135,205.935 241.802,212.769 248.5,218C 255.058,222.446 262.058,226.113 269.5,229C 291.719,234.805 314.052,240.138 336.5,245C 346.546,247.571 356.379,250.738 366,254.5C 370.178,252.601 374.678,251.935 379.5,252.5C 379.187,255.247 379.52,257.914 380.5,260.5C 400.185,269.024 416.851,281.524 430.5,298C 434.152,298.499 437.818,298.665 441.5,298.5C 442.065,303.322 441.399,307.822 439.5,312C 451.364,333.679 455.531,356.846 452,381.5C 451.013,391.279 448.847,400.779 445.5,410C 446.419,414.781 446.752,419.615 446.5,424.5C 443.813,424.336 441.146,424.503 438.5,425C 423.439,449.888 402.105,467.221 374.5,477C 364.449,480.963 354.116,483.796 343.5,485.5C 343.5,487.5 343.5,489.5 343.5,491.5C 339.167,491.5 334.833,491.5 330.5,491.5C 330.5,490.5 330.5,489.5 330.5,488.5C 292.331,493.108 254.664,490.608 217.5,481C 209.054,477.943 200.721,474.61 192.5,471C 187.845,470.501 183.179,470.334 178.5,470.5C 178.813,467.753 178.48,465.086 177.5,462.5C 140.407,436.321 121.74,400.321 121.5,354.5C 119.833,354.5 118.167,354.5 116.5,354.5C 116.5,350.167 116.5,345.833 116.5,341.5C 120.833,341.5 125.167,341.5 129.5,341.5C 129.5,343.167 129.5,344.833 129.5,346.5C 156.5,346.5 183.5,346.5 210.5,346.5C 210.5,345.167 210.5,343.833 210.5,342.5C 214.833,342.5 219.167,342.5 223.5,342.5C 223.5,346.833 223.5,351.167 223.5,355.5C 222.325,355.281 221.325,355.614 220.5,356.5C 224.749,379.496 238.082,394.33 260.5,401C 270.641,403.863 280.974,405.03 291.5,404.5C 291.5,402.5 291.5,400.5 291.5,398.5C 295.833,398.5 300.167,398.5 304.5,398.5C 304.5,400.167 304.5,401.833 304.5,403.5C 321.479,402.265 334.979,394.932 345,381.5C 348.593,373.122 349.426,364.456 347.5,355.5C 344.833,355.5 342.167,355.5 339.5,355.5C 341.073,349.005 339.073,344.172 333.5,341C 323.978,335.826 313.978,331.826 303.5,329C 278.893,322.745 254.226,316.745 229.5,311C 216.385,307.108 203.718,302.108 191.5,296C 187.179,295.501 182.846,295.334 178.5,295.5C 178.813,292.753 178.48,290.086 177.5,287.5C 141.773,263.361 126.606,229.694 132,186.5C 132.696,183.522 133.196,180.522 133.5,177.5C 132.167,177.5 130.833,177.5 129.5,177.5C 129.5,173.167 129.5,168.833 129.5,164.5C 132.167,164.5 134.833,164.5 137.5,164.5C 141.369,150.762 147.869,138.428 157,127.5C 176.784,105.52 200.951,90.5204 229.5,82.5C 229.5,80.1667 229.5,77.8333 229.5,75.5C 233.833,75.5 238.167,75.5 242.5,75.5C 242.5,76.5 242.5,77.5 242.5,78.5C 250.64,77.2448 258.64,75.9115 266.5,74.5 Z"/></g>
<g><path style="opacity:1" fill="#000000" d="M 231.5,77.5 C 234.5,77.5 237.5,77.5 240.5,77.5C 240.5,80.5 240.5,83.5 240.5,86.5C 237.5,86.5 234.5,86.5 231.5,86.5C 231.5,83.5 231.5,80.5 231.5,77.5 Z"/></g>
<g><path style="opacity:1" fill="#b8babb" d="M 373.5,96.5 C 370.454,95.894 367.287,95.5607 364,95.5C 362.333,98.1667 360.667,98.1667 359,95.5C 357.04,98.1463 355.04,98.1463 353,95.5C 352.619,96.4818 351.786,97.1485 350.5,97.5C 347.937,97.263 347.937,96.763 350.5,96C 347.355,95.8888 344.355,95.7221 341.5,95.5C 338.937,95.737 338.937,96.237 341.5,97C 338.534,97.8952 335.867,97.3952 333.5,95.5C 332.252,96.0402 331.085,96.7069 330,97.5C 328.026,97.3528 326.026,97.0195 324,96.5C 323.333,97.1667 322.667,97.8333 322,98.5C 319.667,97.5 317.333,96.5 315,95.5C 312.236,98.5582 310.236,98.5582 309,95.5C 307.691,97.8912 306.691,97.8912 306,95.5C 304,98.1667 302,98.1667 300,95.5C 299.333,96.1667 298.667,96.8333 298,97.5C 295.28,97.3654 292.614,97.0321 290,96.5C 289.044,97.8941 287.711,98.5607 286,98.5C 283.813,97.4597 281.813,96.793 280,96.5C 279.333,99.1667 278.667,99.1667 278,96.5C 277.612,97.428 276.945,98.0946 276,98.5C 274.31,97.8505 272.477,97.8505 270.5,98.5C 270.587,95.4017 270.087,95.0684 269,97.5C 268.667,97.1667 268.333,96.8333 268,96.5C 266.559,97.2598 265.059,97.9264 263.5,98.5C 263.167,97.8333 262.833,97.1667 262.5,96.5C 260.44,98.8916 258.273,98.8916 256,96.5C 255.612,97.428 254.945,98.0946 254,98.5C 251.376,97.1117 248.71,97.4451 246,99.5C 243.257,100.014 240.257,99.3469 237,97.5C 235.887,98.7111 234.72,98.7111 233.5,97.5C 231.902,99.9734 230.402,99.9734 229,97.5C 227.883,97.6651 226.716,97.9984 225.5,98.5C 223.736,95.8228 222.57,96.1562 222,99.5C 219.876,98.7728 217.709,98.1062 215.5,97.5C 214.5,98.8333 213.5,98.8333 212.5,97.5C 212.511,98.4415 212.011,99.1081 211,99.5C 210.055,99.0946 209.388,98.428 209,97.5C 208.196,98.8045 207.029,99.4712 205.5,99.5C 203.033,98.9991 200.7,98.6658 198.5,98.5C 208.107,93.4036 218.107,89.0703 228.5,85.5C 229.386,86.325 229.719,87.325 229.5,88.5C 233.833,88.5 238.167,88.5 242.5,88.5C 242.5,86.1667 242.5,83.8333 242.5,81.5C 250.493,80.4024 258.493,79.2357 266.5,78C 295.269,75.5206 323.603,77.8539 351.5,85C 358.578,87.4703 365.578,90.137 372.5,93C 373.337,94.0113 373.67,95.1779 373.5,96.5 Z"/></g>
<g><path style="opacity:1" fill="#000000" d="M 375.5,89.5 C 378.5,89.5 381.5,89.5 384.5,89.5C 384.5,92.5 384.5,95.5 384.5,98.5C 381.5,98.5 378.5,98.5 375.5,98.5C 375.5,95.5 375.5,92.5 375.5,89.5 Z"/></g>
<g><path style="opacity:1" fill="#b1b3b5" d="M 373.5,96.5 C 373.5,97.8333 373.5,99.1667 373.5,100.5C 378.179,100.334 382.845,100.501 387.5,101C 391.657,103.664 395.657,106.497 399.5,109.5C 397.999,111.739 396.666,111.739 395.5,109.5C 393.958,110.747 392.458,110.747 391,109.5C 389.598,111.973 388.098,111.973 386.5,109.5C 385.522,109.977 384.689,110.643 384,111.5C 382.333,111.5 380.667,111.5 379,111.5C 377.887,109.2 376.387,108.867 374.5,110.5C 373.353,110.182 372.519,109.516 372,108.5C 371.517,109.448 371.351,110.448 371.5,111.5C 369.876,111.64 368.71,110.973 368,109.5C 366.216,112.003 364.549,112.003 363,109.5C 362.333,110.167 361.667,110.833 361,111.5C 359.355,111.307 357.521,111.14 355.5,111C 358.937,110.351 359.104,109.851 356,109.5C 354.635,109.844 353.468,110.511 352.5,111.5C 351.184,108.972 350.017,108.972 349,111.5C 347.87,110.886 346.537,110.886 345,111.5C 343.635,111.156 342.468,110.489 341.5,109.5C 340.833,110.167 340.167,110.833 339.5,111.5C 338.575,110.359 337.741,110.359 337,111.5C 336.667,110.833 336.333,110.167 336,109.5C 334.991,110.658 333.658,111.325 332,111.5C 324.978,110.242 317.978,110.575 311,112.5C 309.34,112.676 307.674,112.009 306,110.5C 303.249,112.973 300.082,112.973 296.5,110.5C 294.328,110.676 291.995,110.843 289.5,111C 290.167,111.333 290.833,111.667 291.5,112C 288.44,112.817 285.606,112.317 283,110.5C 281.941,110.63 281.108,111.13 280.5,112C 277.396,112.127 274.396,112.293 271.5,112.5C 270.833,111.833 270.167,111.167 269.5,110.5C 269.511,111.441 269.011,112.108 268,112.5C 265.649,112.18 263.316,111.847 261,111.5C 259.667,112.167 258.333,112.833 257,113.5C 256.333,112.167 255.667,112.167 255,113.5C 254.309,111.109 253.309,111.109 252,113.5C 251.311,112.643 250.478,111.977 249.5,111.5C 246.436,112.525 243.103,112.525 239.5,111.5C 237.24,113.36 234.74,113.36 232,111.5C 231,112.167 230,112.833 229,113.5C 227.34,113.676 225.674,113.009 224,111.5C 221.585,111.071 219.252,111.738 217,113.5C 214.545,112.577 211.879,112.577 209,113.5C 207.284,113.252 205.784,112.585 204.5,111.5C 202.807,113.279 200.807,113.779 198.5,113C 199.696,112.346 199.696,111.846 198.5,111.5C 197.833,112.167 197.167,112.833 196.5,113.5C 190.982,113.259 185.149,113.259 179,113.5C 178.536,112.906 178.369,112.239 178.5,111.5C 184.627,106.379 191.294,102.046 198.5,98.5C 200.7,98.6658 203.033,98.9991 205.5,99.5C 207.029,99.4712 208.196,98.8045 209,97.5C 209.388,98.428 210.055,99.0946 211,99.5C 212.011,99.1081 212.511,98.4415 212.5,97.5C 213.5,98.8333 214.5,98.8333 215.5,97.5C 217.709,98.1062 219.876,98.7728 222,99.5C 222.57,96.1562 223.736,95.8228 225.5,98.5C 226.716,97.9984 227.883,97.6651 229,97.5C 230.402,99.9734 231.902,99.9734 233.5,97.5C 234.72,98.7111 235.887,98.7111 237,97.5C 240.257,99.3469 243.257,100.014 246,99.5C 248.71,97.4451 251.376,97.1117 254,98.5C 254.945,98.0946 255.612,97.428 256,96.5C 258.273,98.8916 260.44,98.8916 262.5,96.5C 262.833,97.1667 263.167,97.8333 263.5,98.5C 265.059,97.9264 266.559,97.2598 268,96.5C 268.333,96.8333 268.667,97.1667 269,97.5C 270.087,95.0684 270.587,95.4017 270.5,98.5C 272.477,97.8505 274.31,97.8505 276,98.5C 276.945,98.0946 277.612,97.428 278,96.5C 278.667,99.1667 279.333,99.1667 280,96.5C 281.813,96.793 283.813,97.4597 286,98.5C 287.711,98.5607 289.044,97.8941 290,96.5C 292.614,97.0321 295.28,97.3654 298,97.5C 298.667,96.8333 299.333,96.1667 300,95.5C 302,98.1667 304,98.1667 306,95.5C 306.691,97.8912 307.691,97.8912 309,95.5C 310.236,98.5582 312.236,98.5582 315,95.5C 317.333,96.5 319.667,97.5 322,98.5C 322.667,97.8333 323.333,97.1667 324,96.5C 326.026,97.0195 328.026,97.3528 330,97.5C 331.085,96.7069 332.252,96.0402 333.5,95.5C 335.867,97.3952 338.534,97.8952 341.5,97C 338.937,96.237 338.937,95.737 341.5,95.5C 344.355,95.7221 347.355,95.8888 350.5,96C 347.937,96.763 347.937,97.263 350.5,97.5C 351.786,97.1485 352.619,96.4818 353,95.5C 355.04,98.1463 357.04,98.1463 359,95.5C 360.667,98.1667 362.333,98.1667 364,95.5C 367.287,95.5607 370.454,95.894 373.5,96.5 Z"/></g>
<g><path style="opacity:1" fill="#aaadaf" d="M 399.5,109.5 C 402.874,112.51 406.208,115.51 409.5,118.5C 407.239,119.59 405.406,121.256 404,123.5C 403.333,122.833 402.667,122.167 402,121.5C 401.259,122.641 400.425,122.641 399.5,121.5C 398.483,124.028 397.316,124.028 396,121.5C 395.667,122.167 395.333,122.833 395,123.5C 394.259,122.359 393.425,122.359 392.5,123.5C 391.833,122.833 391.167,122.167 390.5,121.5C 390.167,122.167 389.833,122.833 389.5,123.5C 382.808,122.993 376.642,122.993 371,123.5C 370.055,123.095 369.388,122.428 369,121.5C 368.692,122.308 368.192,122.975 367.5,123.5C 365.508,122.979 363.341,122.979 361,123.5C 359.5,123.333 358,123.167 356.5,123C 359.063,122.237 359.063,121.737 356.5,121.5C 355.833,121.667 355.167,121.833 354.5,122C 355.696,122.654 355.696,123.154 354.5,123.5C 353.808,122.975 353.308,122.308 353,121.5C 351.783,122.386 350.449,123.386 349,124.5C 348.311,123.643 347.478,122.977 346.5,122.5C 344.576,122.106 342.743,122.773 341,124.5C 339.135,122.327 336.969,121.993 334.5,123.5C 333.318,121.355 331.818,121.355 330,123.5C 328.984,122.366 328.317,122.699 328,124.5C 326.43,123.642 324.763,122.975 323,122.5C 321.989,122.892 321.489,123.559 321.5,124.5C 320.833,123.833 320.167,123.167 319.5,122.5C 318.5,123.833 317.5,123.833 316.5,122.5C 315.304,122.846 315.304,123.346 316.5,124C 315.833,124.167 315.167,124.333 314.5,124.5C 311.365,125.137 308.365,124.471 305.5,122.5C 304.259,123.037 303.092,123.704 302,124.5C 300.548,122.175 298.881,122.175 297,124.5C 296.667,123.833 296.333,123.167 296,122.5C 295.326,123.578 294.326,124.245 293,124.5C 290.692,124.12 288.359,123.786 286,123.5C 282.667,126.167 279.333,126.167 276,123.5C 274.221,124.479 272.555,124.146 271,122.5C 270.692,123.308 270.192,123.975 269.5,124.5C 265.279,124.351 261.112,124.018 257,123.5C 254.276,125.763 251.443,125.763 248.5,123.5C 244.871,123.97 241.371,123.97 238,123.5C 237.05,124.022 236.216,124.689 235.5,125.5C 234.304,125.154 234.304,124.654 235.5,124C 233.193,123.221 231.193,123.721 229.5,125.5C 229.167,124.833 228.833,124.167 228.5,123.5C 227.808,124.025 227.308,124.692 227,125.5C 224.094,125.349 220.761,125.016 217,124.5C 215.739,124.759 214.739,125.426 214,126.5C 212.796,125.529 212.296,124.529 212.5,123.5C 210.88,126.058 209.38,126.058 208,123.5C 207.667,124.167 207.333,124.833 207,125.5C 206,125.167 205,124.833 204,124.5C 203.333,127.167 202.667,127.167 202,124.5C 200.235,125.239 198.235,125.239 196,124.5C 195.692,125.308 195.192,125.975 194.5,126.5C 194.511,125.559 194.011,124.892 193,124.5C 192.055,124.905 191.388,125.572 191,126.5C 190.692,125.692 190.192,125.025 189.5,124.5C 187.629,125.767 185.796,125.767 184,124.5C 183.667,125.167 183.333,125.833 183,126.5C 179.515,125.282 175.848,124.616 172,124.5C 170.128,125.068 168.295,125.735 166.5,126.5C 165.614,125.675 165.281,124.675 165.5,123.5C 169.207,118.792 173.54,114.792 178.5,111.5C 178.369,112.239 178.536,112.906 179,113.5C 185.149,113.259 190.982,113.259 196.5,113.5C 197.167,112.833 197.833,112.167 198.5,111.5C 199.696,111.846 199.696,112.346 198.5,113C 200.807,113.779 202.807,113.279 204.5,111.5C 205.784,112.585 207.284,113.252 209,113.5C 211.879,112.577 214.545,112.577 217,113.5C 219.252,111.738 221.585,111.071 224,111.5C 225.674,113.009 227.34,113.676 229,113.5C 230,112.833 231,112.167 232,111.5C 234.74,113.36 237.24,113.36 239.5,111.5C 243.103,112.525 246.436,112.525 249.5,111.5C 250.478,111.977 251.311,112.643 252,113.5C 253.309,111.109 254.309,111.109 255,113.5C 255.667,112.167 256.333,112.167 257,113.5C 258.333,112.833 259.667,112.167 261,111.5C 263.316,111.847 265.649,112.18 268,112.5C 269.011,112.108 269.511,111.441 269.5,110.5C 270.167,111.167 270.833,111.833 271.5,112.5C 274.396,112.293 277.396,112.127 280.5,112C 281.108,111.13 281.941,110.63 283,110.5C 285.606,112.317 288.44,112.817 291.5,112C 290.833,111.667 290.167,111.333 289.5,111C 291.995,110.843 294.328,110.676 296.5,110.5C 300.082,112.973 303.249,112.973 306,110.5C 307.674,112.009 309.34,112.676 311,112.5C 317.978,110.575 324.978,110.242 332,111.5C 333.658,111.325 334.991,110.658 336,109.5C 336.333,110.167 336.667,110.833 337,111.5C 337.741,110.359 338.575,110.359 339.5,111.5C 340.167,110.833 340.833,110.167 341.5,109.5C 342.468,110.489 343.635,111.156 345,111.5C 346.537,110.886 347.87,110.886 349,111.5C 350.017,108.972 351.184,108.972 352.5,111.5C 353.468,110.511 354.635,109.844 356,109.5C 359.104,109.851 358.937,110.351 355.5,111C 357.521,111.14 359.355,111.307 361,111.5C 361.667,110.833 362.333,110.167 363,109.5C 364.549,112.003 366.216,112.003 368,109.5C 368.71,110.973 369.876,111.64 371.5,111.5C 371.351,110.448 371.517,109.448 372,108.5C 372.519,109.516 373.353,110.182 374.5,110.5C 376.387,108.867 377.887,109.2 379,111.5C 380.667,111.5 382.333,111.5 384,111.5C 384.689,110.643 385.522,109.977 386.5,109.5C 388.098,111.973 389.598,111.973 391,109.5C 392.458,110.747 393.958,110.747 395.5,109.5C 396.666,111.739 397.999,111.739 399.5,109.5 Z"/></g>
<g><path style="opacity:1" fill="#a5a9ab" d="M 409.5,118.5 C 414.437,122.382 418.437,127.048 421.5,132.5C 421.082,133.222 420.416,133.722 419.5,134C 419.833,134.333 420.167,134.667 420.5,135C 417.007,136.004 413.841,135.504 411,133.5C 409.216,136.003 407.549,136.003 406,133.5C 405.333,136.167 404.667,136.167 404,133.5C 403.692,134.308 403.192,134.975 402.5,135.5C 400.5,135.5 398.5,135.5 396.5,135.5C 394.054,133.061 391.554,133.061 389,135.5C 384.601,135.809 380.434,135.476 376.5,134.5C 375.483,137.028 374.316,137.028 373,134.5C 369.667,135.167 366.333,135.833 363,136.5C 362.667,135.833 362.333,135.167 362,134.5C 359.225,134.895 356.225,135.562 353,136.5C 351.5,136.333 350,136.167 348.5,136C 349.696,135.346 349.696,134.846 348.5,134.5C 347.252,135.04 346.085,135.707 345,136.5C 338.209,136.142 331.543,136.142 325,136.5C 323.092,134.093 321.092,134.093 319,136.5C 318.055,136.095 317.388,135.428 317,134.5C 316.311,135.357 315.478,136.023 314.5,136.5C 312.588,136.512 310.588,136.179 308.5,135.5C 307.167,136.167 305.833,136.833 304.5,137.5C 303.167,136.167 301.833,136.167 300.5,137.5C 299.304,137.154 299.304,136.654 300.5,136C 299.833,135.833 299.167,135.667 298.5,135.5C 293.823,136.162 289.656,136.162 286,135.5C 284.691,137.891 283.691,137.891 283,135.5C 281.582,137.363 279.749,137.863 277.5,137C 281.414,136.103 281.248,135.603 277,135.5C 274.521,136.245 272.021,136.911 269.5,137.5C 267.68,137.351 266.18,136.684 265,135.5C 263.82,136.684 262.32,137.351 260.5,137.5C 257.066,137.033 253.733,137.033 250.5,137.5C 247.398,137.503 247.065,137.003 249.5,136C 247.406,135.555 245.906,136.388 245,138.5C 245.077,137.262 244.911,136.262 244.5,135.5C 243.749,136.376 243.249,137.376 243,138.5C 239.445,136.293 235.779,136.293 232,138.5C 230.209,136.487 228.875,136.487 228,138.5C 227.667,137.833 227.333,137.167 227,136.5C 224.063,137.411 220.897,137.411 217.5,136.5C 215.552,138.539 213.385,138.539 211,136.5C 208.493,136.836 205.827,137.502 203,138.5C 201.833,138.333 200.667,138.167 199.5,138C 202.063,137.237 202.063,136.737 199.5,136.5C 197.971,136.529 196.804,137.196 196,138.5C 192.628,138.218 189.128,138.218 185.5,138.5C 182.791,136.482 180.291,136.482 178,138.5C 176.238,138.056 176.405,137.556 178.5,137C 175.582,136.284 172.915,136.784 170.5,138.5C 168.655,137.062 167.489,137.396 167,139.5C 165.33,139.656 163.663,138.99 162,137.5C 160.739,137.759 159.739,138.426 159,139.5C 158.667,138.833 158.333,138.167 158,137.5C 156.644,138.38 155.144,138.714 153.5,138.5C 156.747,132.917 160.747,127.917 165.5,123.5C 165.281,124.675 165.614,125.675 166.5,126.5C 168.295,125.735 170.128,125.068 172,124.5C 175.848,124.616 179.515,125.282 183,126.5C 183.333,125.833 183.667,125.167 184,124.5C 185.796,125.767 187.629,125.767 189.5,124.5C 190.192,125.025 190.692,125.692 191,126.5C 191.388,125.572 192.055,124.905 193,124.5C 194.011,124.892 194.511,125.559 194.5,126.5C 195.192,125.975 195.692,125.308 196,124.5C 198.235,125.239 200.235,125.239 202,124.5C 202.667,127.167 203.333,127.167 204,124.5C 205,124.833 206,125.167 207,125.5C 207.333,124.833 207.667,124.167 208,123.5C 209.38,126.058 210.88,126.058 212.5,123.5C 212.296,124.529 212.796,125.529 214,126.5C 214.739,125.426 215.739,124.759 217,124.5C 220.761,125.016 224.094,125.349 227,125.5C 227.308,124.692 227.808,124.025 228.5,123.5C 228.833,124.167 229.167,124.833 229.5,125.5C 231.193,123.721 233.193,123.221 235.5,124C 234.304,124.654 234.304,125.154 235.5,125.5C 236.216,124.689 237.05,124.022 238,123.5C 241.371,123.97 244.871,123.97 248.5,123.5C 251.443,125.763 254.276,125.763 257,123.5C 261.112,124.018 265.279,124.351 269.5,124.5C 270.192,123.975 270.692,123.308 271,122.5C 272.555,124.146 274.221,124.479 276,123.5C 279.333,126.167 282.667,126.167 286,123.5C 288.359,123.786 290.692,124.12 293,124.5C 294.326,124.245 295.326,123.578 296,122.5C 296.333,123.167 296.667,123.833 297,124.5C 298.881,122.175 300.548,122.175 302,124.5C 303.092,123.704 304.259,123.037 305.5,122.5C 308.365,124.471 311.365,125.137 314.5,124.5C 315.167,124.333 315.833,124.167 316.5,124C 315.304,123.346 315.304,122.846 316.5,122.5C 317.5,123.833 318.5,123.833 319.5,122.5C 320.167,123.167 320.833,123.833 321.5,124.5C 321.489,123.559 321.989,122.892 323,122.5C 324.763,122.975 326.43,123.642 328,124.5C 328.317,122.699 328.984,122.366 330,123.5C 331.818,121.355 333.318,121.355 334.5,123.5C 336.969,121.993 339.135,122.327 341,124.5C 342.743,122.773 344.576,122.106 346.5,122.5C 347.478,122.977 348.311,123.643 349,124.5C 350.449,123.386 351.783,122.386 353,121.5C 353.308,122.308 353.808,122.975 354.5,123.5C 355.696,123.154 355.696,122.654 354.5,122C 355.167,121.833 355.833,121.667 356.5,121.5C 359.063,121.737 359.063,122.237 356.5,123C 358,123.167 359.5,123.333 361,123.5C 363.341,122.979 365.508,122.979 367.5,123.5C 368.192,122.975 368.692,122.308 369,121.5C 369.388,122.428 370.055,123.095 371,123.5C 376.642,122.993 382.808,122.993 389.5,123.5C 389.833,122.833 390.167,122.167 390.5,121.5C 391.167,122.167 391.833,122.833 392.5,123.5C 393.425,122.359 394.259,122.359 395,123.5C 395.333,122.833 395.667,122.167 396,121.5C 397.316,124.028 398.483,124.028 399.5,121.5C 400.425,122.641 401.259,122.641 402,121.5C 402.667,122.167 403.333,122.833 404,123.5C 405.406,121.256 407.239,119.59 409.5,118.5 Z"/></g>
<g><path style="opacity:1" fill="#9fa3a5" d="M 421.5,132.5 C 425.281,136.624 428.281,141.291 430.5,146.5C 429.154,150.992 426.487,151.825 422.5,149C 424.595,148.444 424.762,147.944 423,147.5C 420.496,150.987 418.329,150.987 416.5,147.5C 416.167,148.167 415.833,148.833 415.5,149.5C 410.422,149.732 405.256,149.399 400,148.5C 399,149.167 398,149.833 397,150.5C 395.235,149.761 393.235,149.761 391,150.5C 389.874,149.056 388.374,148.39 386.5,148.5C 384.662,149.112 382.995,149.112 381.5,148.5C 379.833,151.167 378.167,151.167 376.5,148.5C 375.522,148.977 374.689,149.643 374,150.5C 373.692,149.692 373.192,149.025 372.5,148.5C 371.402,149.615 370.235,149.615 369,148.5C 368.055,148.905 367.388,149.572 367,150.5C 363.475,149.554 359.809,149.554 356,150.5C 355.692,149.692 355.192,149.025 354.5,148.5C 354.089,149.262 353.923,150.262 354,151.5C 353.333,150.833 352.667,150.167 352,149.5C 351.282,150.451 350.449,150.617 349.5,150C 350.696,149.346 350.696,148.846 349.5,148.5C 348.522,148.977 347.689,149.643 347,150.5C 346.667,150.167 346.333,149.833 346,149.5C 341.52,151.871 337.52,151.538 334,148.5C 333.667,149.167 333.333,149.833 333,150.5C 331.732,150.384 330.398,150.051 329,149.5C 328.667,150.167 328.333,150.833 328,151.5C 325.236,150.614 322.236,150.614 319,151.5C 317.739,151.241 316.739,150.574 316,149.5C 315.667,150.167 315.333,150.833 315,151.5C 314.029,150.802 312.863,150.802 311.5,151.5C 310.328,151.081 309.328,150.415 308.5,149.5C 307.808,150.025 307.308,150.692 307,151.5C 304.068,151.477 301.235,151.477 298.5,151.5C 294.167,151.5 289.833,151.5 285.5,151.5C 283.508,151.672 281.842,151.005 280.5,149.5C 280.704,150.529 280.204,151.529 279,152.5C 276.267,150.109 273.6,150.109 271,152.5C 269.075,150.027 267.242,150.027 265.5,152.5C 264.5,151.167 263.5,151.167 262.5,152.5C 260.013,150.443 257.347,150.109 254.5,151.5C 253.353,151.182 252.519,150.516 252,149.5C 249.6,152.245 247.1,152.578 244.5,150.5C 243.304,150.846 243.304,151.346 244.5,152C 242.251,152.863 240.418,152.363 239,150.5C 238.311,151.357 237.478,152.023 236.5,152.5C 235.575,151.359 234.741,151.359 234,152.5C 232.684,149.972 231.517,149.972 230.5,152.5C 229.676,150.252 228.676,150.086 227.5,152C 223.28,151.96 219.114,152.127 215,152.5C 213.989,152.108 213.489,151.441 213.5,150.5C 212.784,151.311 211.95,151.978 211,152.5C 209.348,152.14 207.682,151.807 206,151.5C 204.915,153.657 203.749,153.824 202.5,152C 204.595,151.444 204.762,150.944 203,150.5C 202.055,150.905 201.388,151.572 201,152.5C 199.243,151.629 197.243,151.629 195,152.5C 193.105,152.385 191.438,151.718 190,150.5C 189.544,151.744 190.044,152.577 191.5,153C 189.633,153.711 188.133,153.211 187,151.5C 186.333,154.167 185.667,154.167 185,151.5C 183.333,152.167 181.667,152.833 180,153.5C 179.517,152.552 179.351,151.552 179.5,150.5C 173.792,150.492 173.459,150.992 178.5,152C 177.584,152.374 176.75,152.874 176,153.5C 175.333,152.167 174.667,152.167 174,153.5C 173.751,152.376 173.251,151.376 172.5,150.5C 171.304,150.846 171.304,151.346 172.5,152C 171,152.5 169.5,153 168,153.5C 166.296,153.026 164.462,152.859 162.5,153C 163.696,152.346 163.696,151.846 162.5,151.5C 161.833,152.167 161.167,152.833 160.5,153.5C 159.575,152.359 158.741,152.359 158,153.5C 157.374,151.009 156.541,151.009 155.5,153.5C 154.402,152.385 153.235,152.385 152,153.5C 151.055,153.095 150.388,152.428 150,151.5C 149.275,153.158 148.108,153.658 146.5,153C 147.167,152.667 147.833,152.333 148.5,152C 147.584,151.722 146.918,151.222 146.5,150.5C 148.043,145.976 150.377,141.976 153.5,138.5C 155.144,138.714 156.644,138.38 158,137.5C 158.333,138.167 158.667,138.833 159,139.5C 159.739,138.426 160.739,137.759 162,137.5C 163.663,138.99 165.33,139.656 167,139.5C 167.489,137.396 168.655,137.062 170.5,138.5C 172.915,136.784 175.582,136.284 178.5,137C 176.405,137.556 176.238,138.056 178,138.5C 180.291,136.482 182.791,136.482 185.5,138.5C 189.128,138.218 192.628,138.218 196,138.5C 196.804,137.196 197.971,136.529 199.5,136.5C 202.063,136.737 202.063,137.237 199.5,138C 200.667,138.167 201.833,138.333 203,138.5C 205.827,137.502 208.493,136.836 211,136.5C 213.385,138.539 215.552,138.539 217.5,136.5C 220.897,137.411 224.063,137.411 227,136.5C 227.333,137.167 227.667,137.833 228,138.5C 228.875,136.487 230.209,136.487 232,138.5C 235.779,136.293 239.445,136.293 243,138.5C 243.249,137.376 243.749,136.376 244.5,135.5C 244.911,136.262 245.077,137.262 245,138.5C 245.906,136.388 247.406,135.555 249.5,136C 247.065,137.003 247.398,137.503 250.5,137.5C 253.733,137.033 257.066,137.033 260.5,137.5C 262.32,137.351 263.82,136.684 265,135.5C 266.18,136.684 267.68,137.351 269.5,137.5C 272.021,136.911 274.521,136.245 277,135.5C 281.248,135.603 281.414,136.103 277.5,137C 279.749,137.863 281.582,137.363 283,135.5C 283.691,137.891 284.691,137.891 286,135.5C 289.656,136.162 293.823,136.162 298.5,135.5C 299.167,135.667 299.833,135.833 300.5,136C 299.304,136.654 299.304,137.154 300.5,137.5C 301.833,136.167 303.167,136.167 304.5,137.5C 305.833,136.833 307.167,136.167 308.5,135.5C 310.588,136.179 312.588,136.512 314.5,136.5C 315.478,136.023 316.311,135.357 317,134.5C 317.388,135.428 318.055,136.095 319,136.5C 321.092,134.093 323.092,134.093 325,136.5C 331.543,136.142 338.209,136.142 345,136.5C 346.085,135.707 347.252,135.04 348.5,134.5C 349.696,134.846 349.696,135.346 348.5,136C 350,136.167 351.5,136.333 353,136.5C 356.225,135.562 359.225,134.895 362,134.5C 362.333,135.167 362.667,135.833 363,136.5C 366.333,135.833 369.667,135.167 373,134.5C 374.316,137.028 375.483,137.028 376.5,134.5C 380.434,135.476 384.601,135.809 389,135.5C 391.554,133.061 394.054,133.061 396.5,135.5C 398.5,135.5 400.5,135.5 402.5,135.5C 403.192,134.975 403.692,134.308 404,133.5C 404.667,136.167 405.333,136.167 406,133.5C 407.549,136.003 409.216,136.003 411,133.5C 413.841,135.504 417.007,136.004 420.5,135C 420.167,134.667 419.833,134.333 419.5,134C 420.416,133.722 421.082,133.222 421.5,132.5 Z"/></g>
<g><path style="opacity:1" fill="#969b9e" d="M 430.5,146.5 C 435.34,154.473 438.673,163.14 440.5,172.5C 438.323,172.586 436.323,173.253 434.5,174.5C 432.833,174.5 431.167,174.5 429.5,174.5C 428.808,173.975 428.308,173.308 428,172.5C 427.612,173.428 426.945,174.095 426,174.5C 422.667,174.5 419.333,174.5 416,174.5C 415.055,174.095 414.388,173.428 414,172.5C 413.667,173.167 413.333,173.833 413,174.5C 411.221,173.521 409.555,173.854 408,175.5C 407.193,173.78 405.693,173.446 403.5,174.5C 402.006,174.291 400.839,173.624 400,172.5C 399.193,176.449 398.693,176.449 398.5,172.5C 396.876,172.36 395.71,173.027 395,174.5C 389.796,174.292 384.463,173.958 379,173.5C 376.426,175.948 373.926,175.948 371.5,173.5C 371.511,174.441 371.011,175.108 370,175.5C 369.055,175.095 368.388,174.428 368,173.5C 367.692,174.308 367.192,174.975 366.5,175.5C 364.641,175.112 362.641,175.112 360.5,175.5C 359.672,174.585 358.672,173.919 357.5,173.5C 356.5,174.167 355.5,174.833 354.5,175.5C 352.114,175.219 349.781,175.219 347.5,175.5C 347.167,174.833 346.833,174.167 346.5,173.5C 344.925,174.456 343.258,175.123 341.5,175.5C 329.924,163.333 315.591,157.333 298.5,157.5C 298.5,155.5 298.5,153.5 298.5,151.5C 301.235,151.477 304.068,151.477 307,151.5C 307.308,150.692 307.808,150.025 308.5,149.5C 309.328,150.415 310.328,151.081 311.5,151.5C 312.863,150.802 314.029,150.802 315,151.5C 315.333,150.833 315.667,150.167 316,149.5C 316.739,150.574 317.739,151.241 319,151.5C 322.236,150.614 325.236,150.614 328,151.5C 328.333,150.833 328.667,150.167 329,149.5C 330.398,150.051 331.732,150.384 333,150.5C 333.333,149.833 333.667,149.167 334,148.5C 337.52,151.538 341.52,151.871 346,149.5C 346.333,149.833 346.667,150.167 347,150.5C 347.689,149.643 348.522,148.977 349.5,148.5C 350.696,148.846 350.696,149.346 349.5,150C 350.449,150.617 351.282,150.451 352,149.5C 352.667,150.167 353.333,150.833 354,151.5C 353.923,150.262 354.089,149.262 354.5,148.5C 355.192,149.025 355.692,149.692 356,150.5C 359.809,149.554 363.475,149.554 367,150.5C 367.388,149.572 368.055,148.905 369,148.5C 370.235,149.615 371.402,149.615 372.5,148.5C 373.192,149.025 373.692,149.692 374,150.5C 374.689,149.643 375.522,148.977 376.5,148.5C 378.167,151.167 379.833,151.167 381.5,148.5C 382.995,149.112 384.662,149.112 386.5,148.5C 388.374,148.39 389.874,149.056 391,150.5C 393.235,149.761 395.235,149.761 397,150.5C 398,149.833 399,149.167 400,148.5C 405.256,149.399 410.422,149.732 415.5,149.5C 415.833,148.833 416.167,148.167 416.5,147.5C 418.329,150.987 420.496,150.987 423,147.5C 424.762,147.944 424.595,148.444 422.5,149C 426.487,151.825 429.154,150.992 430.5,146.5 Z"/></g>
<g><path style="opacity:1" fill="#979b9e" d="M 285.5,151.5 C 285.5,153.5 285.5,155.5 285.5,157.5C 271.117,156.796 258.117,160.629 246.5,169C 244.266,171.063 242.266,173.229 240.5,175.5C 238.122,174.259 236.289,174.926 235,177.5C 233.915,176.707 232.748,176.04 231.5,175.5C 231.511,176.441 231.011,177.108 230,177.5C 229.055,177.095 228.388,176.428 228,175.5C 227.125,177.513 225.791,177.513 224,175.5C 223.333,176.833 222.667,176.833 222,175.5C 221.333,178.167 220.667,178.167 220,175.5C 217.589,178.105 215.089,178.105 212.5,175.5C 211.452,176.383 210.285,177.05 209,177.5C 207.989,177.108 207.489,176.441 207.5,175.5C 206.784,176.311 205.95,176.978 205,177.5C 203.56,176.393 202.06,176.393 200.5,177.5C 198.971,177.471 197.804,176.804 197,175.5C 195.667,176.167 194.333,176.833 193,177.5C 191.883,177.335 190.716,177.002 189.5,176.5C 189.167,177.167 188.833,177.833 188.5,178.5C 187.029,177.583 185.529,176.583 184,175.5C 181.92,177.973 179.754,177.973 177.5,175.5C 176.184,178.028 175.017,178.028 174,175.5C 173.481,176.516 172.647,177.182 171.5,177.5C 168.928,177.214 166.428,177.214 164,177.5C 163,176.833 162,176.167 161,175.5C 158.867,177.853 156.2,178.853 153,178.5C 150.648,178.695 148.648,178.028 147,176.5C 146.667,177.167 146.333,177.833 146,178.5C 144.989,177.663 143.822,177.33 142.5,177.5C 142.982,172.467 142.315,167.634 140.5,163C 141.866,158.437 143.866,154.271 146.5,150.5C 146.918,151.222 147.584,151.722 148.5,152C 147.833,152.333 147.167,152.667 146.5,153C 148.108,153.658 149.275,153.158 150,151.5C 150.388,152.428 151.055,153.095 152,153.5C 153.235,152.385 154.402,152.385 155.5,153.5C 156.541,151.009 157.374,151.009 158,153.5C 158.741,152.359 159.575,152.359 160.5,153.5C 161.167,152.833 161.833,152.167 162.5,151.5C 163.696,151.846 163.696,152.346 162.5,153C 164.462,152.859 166.296,153.026 168,153.5C 169.5,153 171,152.5 172.5,152C 171.304,151.346 171.304,150.846 172.5,150.5C 173.251,151.376 173.751,152.376 174,153.5C 174.667,152.167 175.333,152.167 176,153.5C 176.75,152.874 177.584,152.374 178.5,152C 173.459,150.992 173.792,150.492 179.5,150.5C 179.351,151.552 179.517,152.552 180,153.5C 181.667,152.833 183.333,152.167 185,151.5C 185.667,154.167 186.333,154.167 187,151.5C 188.133,153.211 189.633,153.711 191.5,153C 190.044,152.577 189.544,151.744 190,150.5C 191.438,151.718 193.105,152.385 195,152.5C 197.243,151.629 199.243,151.629 201,152.5C 201.388,151.572 202.055,150.905 203,150.5C 204.762,150.944 204.595,151.444 202.5,152C 203.749,153.824 204.915,153.657 206,151.5C 207.682,151.807 209.348,152.14 211,152.5C 211.95,151.978 212.784,151.311 213.5,150.5C 213.489,151.441 213.989,152.108 215,152.5C 219.114,152.127 223.28,151.96 227.5,152C 228.676,150.086 229.676,150.252 230.5,152.5C 231.517,149.972 232.684,149.972 234,152.5C 234.741,151.359 235.575,151.359 236.5,152.5C 237.478,152.023 238.311,151.357 239,150.5C 240.418,152.363 242.251,152.863 244.5,152C 243.304,151.346 243.304,150.846 244.5,150.5C 247.1,152.578 249.6,152.245 252,149.5C 252.519,150.516 253.353,151.182 254.5,151.5C 257.347,150.109 260.013,150.443 262.5,152.5C 263.5,151.167 264.5,151.167 265.5,152.5C 267.242,150.027 269.075,150.027 271,152.5C 273.6,150.109 276.267,150.109 279,152.5C 280.204,151.529 280.704,150.529 280.5,149.5C 281.842,151.005 283.508,151.672 285.5,151.5 Z"/></g>
<g><path style="opacity:1" fill="#000000" d="M 287.5,153.5 C 290.5,153.5 293.5,153.5 296.5,153.5C 296.5,156.5 296.5,159.5 296.5,162.5C 293.5,162.5 290.5,162.5 287.5,162.5C 287.5,159.5 287.5,156.5 287.5,153.5 Z"/></g>
<g><path style="opacity:1" fill="#000000" d="M 131.5,166.5 C 134.5,166.5 137.5,166.5 140.5,166.5C 140.5,169.5 140.5,172.5 140.5,175.5C 137.5,175.5 134.5,175.5 131.5,175.5C 131.5,172.5 131.5,169.5 131.5,166.5 Z"/></g>
<g><path style="opacity:1" fill="#8c9195" d="M 240.5,175.5 C 238.872,178.419 237.538,181.419 236.5,184.5C 234.167,184.5 231.833,184.5 229.5,184.5C 229.5,187.167 229.5,189.833 229.5,192.5C 227.533,192.739 225.699,192.406 224,191.5C 223.333,192.167 222.667,192.833 222,193.5C 219.667,192.833 217.333,192.167 215,191.5C 214.333,192.167 213.667,192.833 213,193.5C 211.414,192.624 209.914,191.624 208.5,190.5C 207.304,190.846 207.304,191.346 208.5,192C 206.567,192.783 205.067,192.283 204,190.5C 203.333,191.167 202.667,191.833 202,192.5C 199.455,192.257 196.955,192.257 194.5,192.5C 193.184,189.972 192.017,189.972 191,192.5C 188.053,192.546 185.22,192.213 182.5,191.5C 180.88,194.058 179.38,194.058 178,191.5C 177.333,192.167 176.667,192.833 176,193.5C 174.414,192.624 172.914,191.624 171.5,190.5C 170.289,191.274 170.289,192.107 171.5,193C 171,193.167 170.5,193.333 170,193.5C 167.07,192.816 164.07,191.816 161,190.5C 159.238,190.944 159.405,191.444 161.5,192C 159.939,192.318 158.772,193.151 158,194.5C 156.211,194.377 154.378,194.377 152.5,194.5C 152.167,193.833 151.833,193.167 151.5,192.5C 146.707,192.714 141.873,193.047 137,193.5C 135.648,191.406 135.148,189.073 135.5,186.5C 135.963,183.518 136.296,180.518 136.5,177.5C 138.5,177.5 140.5,177.5 142.5,177.5C 143.822,177.33 144.989,177.663 146,178.5C 146.333,177.833 146.667,177.167 147,176.5C 148.648,178.028 150.648,178.695 153,178.5C 156.2,178.853 158.867,177.853 161,175.5C 162,176.167 163,176.833 164,177.5C 166.428,177.214 168.928,177.214 171.5,177.5C 172.647,177.182 173.481,176.516 174,175.5C 175.017,178.028 176.184,178.028 177.5,175.5C 179.754,177.973 181.92,177.973 184,175.5C 185.529,176.583 187.029,177.583 188.5,178.5C 188.833,177.833 189.167,177.167 189.5,176.5C 190.716,177.002 191.883,177.335 193,177.5C 194.333,176.833 195.667,176.167 197,175.5C 197.804,176.804 198.971,177.471 200.5,177.5C 202.06,176.393 203.56,176.393 205,177.5C 205.95,176.978 206.784,176.311 207.5,175.5C 207.489,176.441 207.989,177.108 209,177.5C 210.285,177.05 211.452,176.383 212.5,175.5C 215.089,178.105 217.589,178.105 220,175.5C 220.667,178.167 221.333,178.167 222,175.5C 222.667,176.833 223.333,176.833 224,175.5C 225.791,177.513 227.125,177.513 228,175.5C 228.388,176.428 229.055,177.095 230,177.5C 231.011,177.108 231.511,176.441 231.5,175.5C 232.748,176.04 233.915,176.707 235,177.5C 236.289,174.926 238.122,174.259 240.5,175.5 Z"/></g>
<g><path style="opacity:1" fill="#000000" d="M 231.5,186.5 C 234.5,186.5 237.5,186.5 240.5,186.5C 240.5,189.5 240.5,192.5 240.5,195.5C 237.5,195.5 234.5,195.5 231.5,195.5C 231.5,192.5 231.5,189.5 231.5,186.5 Z"/></g>
<g><path style="opacity:1" fill="#888e92" d="M 440.5,172.5 C 442.709,180.232 444.042,188.232 444.5,196.5C 442.5,196.5 440.5,196.5 438.5,196.5C 438.5,198.5 438.5,200.5 438.5,202.5C 411.5,202.5 384.5,202.5 357.5,202.5C 357.5,200.5 357.5,198.5 357.5,196.5C 355.396,196.799 353.396,196.466 351.5,195.5C 349.74,187.98 346.407,181.313 341.5,175.5C 343.258,175.123 344.925,174.456 346.5,173.5C 346.833,174.167 347.167,174.833 347.5,175.5C 349.781,175.219 352.114,175.219 354.5,175.5C 355.5,174.833 356.5,174.167 357.5,173.5C 358.672,173.919 359.672,174.585 360.5,175.5C 362.641,175.112 364.641,175.112 366.5,175.5C 367.192,174.975 367.692,174.308 368,173.5C 368.388,174.428 369.055,175.095 370,175.5C 371.011,175.108 371.511,174.441 371.5,173.5C 373.926,175.948 376.426,175.948 379,173.5C 384.463,173.958 389.796,174.292 395,174.5C 395.71,173.027 396.876,172.36 398.5,172.5C 398.693,176.449 399.193,176.449 400,172.5C 400.839,173.624 402.006,174.291 403.5,174.5C 405.693,173.446 407.193,173.78 408,175.5C 409.555,173.854 411.221,173.521 413,174.5C 413.333,173.833 413.667,173.167 414,172.5C 414.388,173.428 415.055,174.095 416,174.5C 419.333,174.5 422.667,174.5 426,174.5C 426.945,174.095 427.612,173.428 428,172.5C 428.308,173.308 428.808,173.975 429.5,174.5C 431.167,174.5 432.833,174.5 434.5,174.5C 436.323,173.253 438.323,172.586 440.5,172.5 Z"/></g>
<g><path style="opacity:1" fill="#000000" d="M 346.5,198.5 C 349.5,198.5 352.5,198.5 355.5,198.5C 355.5,201.5 355.5,204.5 355.5,207.5C 352.5,207.5 349.5,207.5 346.5,207.5C 346.5,204.5 346.5,201.5 346.5,198.5 Z"/></g>
<g><path style="opacity:1" fill="#000000" d="M 440.5,198.5 C 443.5,198.5 446.5,198.5 449.5,198.5C 449.5,201.5 449.5,204.5 449.5,207.5C 446.5,207.5 443.5,207.5 440.5,207.5C 440.5,204.5 440.5,201.5 440.5,198.5 Z"/></g>
<g><path style="opacity:1" fill="#82898c" d="M 135.5,186.5 C 135.148,189.073 135.648,191.406 137,193.5C 141.873,193.047 146.707,192.714 151.5,192.5C 151.833,193.167 152.167,193.833 152.5,194.5C 154.378,194.377 156.211,194.377 158,194.5C 158.772,193.151 159.939,192.318 161.5,192C 159.405,191.444 159.238,190.944 161,190.5C 164.07,191.816 167.07,192.816 170,193.5C 170.5,193.333 171,193.167 171.5,193C 170.289,192.107 170.289,191.274 171.5,190.5C 172.914,191.624 174.414,192.624 176,193.5C 176.667,192.833 177.333,192.167 178,191.5C 179.38,194.058 180.88,194.058 182.5,191.5C 185.22,192.213 188.053,192.546 191,192.5C 192.017,189.972 193.184,189.972 194.5,192.5C 196.955,192.257 199.455,192.257 202,192.5C 202.667,191.833 203.333,191.167 204,190.5C 205.067,192.283 206.567,192.783 208.5,192C 207.304,191.346 207.304,190.846 208.5,190.5C 209.914,191.624 211.414,192.624 213,193.5C 213.667,192.833 214.333,192.167 215,191.5C 217.333,192.167 219.667,192.833 222,193.5C 222.667,192.833 223.333,192.167 224,191.5C 225.699,192.406 227.533,192.739 229.5,192.5C 229.5,194.167 229.5,195.833 229.5,197.5C 231.167,197.5 232.833,197.5 234.5,197.5C 234.92,203.761 236.92,209.428 240.5,214.5C 239.848,215.725 238.681,216.392 237,216.5C 234.859,215.888 232.859,215.888 231,216.5C 230.667,215.833 230.333,215.167 230,214.5C 229.612,215.428 228.945,216.095 228,216.5C 225.414,216.339 222.914,216.339 220.5,216.5C 219.167,215.833 217.833,215.167 216.5,214.5C 215.137,215.198 213.971,215.198 213,214.5C 211.667,217.167 210.333,217.167 209,214.5C 207.488,215.257 206.154,216.257 205,217.5C 204.692,216.692 204.192,216.025 203.5,215.5C 202.304,215.846 202.304,216.346 203.5,217C 202.833,217.167 202.167,217.333 201.5,217.5C 200.137,216.802 198.971,216.802 198,217.5C 196.126,215.224 194.459,215.557 193,218.5C 192.667,217.833 192.333,217.167 192,216.5C 189.183,216.923 186.35,217.256 183.5,217.5C 182.833,216.833 182.167,216.167 181.5,215.5C 180.304,215.846 180.304,216.346 181.5,217C 179.559,217.743 177.726,217.576 176,216.5C 174,217.167 172,217.833 170,218.5C 169.333,215.833 168.667,215.833 168,218.5C 166.406,217.427 164.906,216.427 163.5,215.5C 163.089,216.262 162.923,217.262 163,218.5C 159.733,218.105 156.733,217.105 154,215.5C 153.692,216.308 153.192,216.975 152.5,217.5C 151.304,217.154 151.304,216.654 152.5,216C 149.725,215.222 147.225,215.722 145,217.5C 144.055,217.095 143.388,216.428 143,215.5C 142.374,217.991 141.541,217.991 140.5,215.5C 139.494,215.938 139.494,216.604 140.5,217.5C 138.833,218.666 137.166,218.666 135.5,217.5C 134.425,207.006 134.425,196.673 135.5,186.5 Z"/></g>
<g><path style="opacity:1" fill="#798185" d="M 240.5,214.5 C 247.135,221.154 254.802,226.321 263.5,230C 272.79,233.378 282.123,236.211 291.5,238.5C 291.217,239.289 290.717,239.956 290,240.5C 287.689,239.513 285.355,238.513 283,237.5C 281.289,237.439 279.956,238.106 279,239.5C 276.703,239.461 274.37,239.128 272,238.5C 271.667,239.167 271.333,239.833 271,240.5C 269.796,239.529 269.296,238.529 269.5,237.5C 268.5,238.167 267.5,238.833 266.5,239.5C 266.167,238.833 265.833,238.167 265.5,237.5C 264.086,238.624 262.586,239.624 261,240.5C 259.475,240.112 257.808,240.112 256,240.5C 255.333,237.833 254.667,237.833 254,240.5C 249.154,239.681 243.82,239.681 238,240.5C 237,239.833 236,239.167 235,238.5C 233.604,239.394 232.104,240.061 230.5,240.5C 229.045,239.61 227.711,239.61 226.5,240.5C 225.459,238.009 224.626,238.009 224,240.5C 223.333,239.167 222.667,239.167 222,240.5C 219.008,237.558 216.508,237.892 214.5,241.5C 212.457,240.56 210.457,239.56 208.5,238.5C 206.5,239.167 204.5,239.833 202.5,240.5C 199.657,240.706 196.991,240.373 194.5,239.5C 193.5,240.167 192.5,240.833 191.5,241.5C 187.967,241.3 184.467,241.3 181,241.5C 179.833,241.333 178.667,241.167 177.5,241C 176.764,237.514 175.264,237.68 173,241.5C 172.259,240.359 171.425,240.359 170.5,241.5C 168.952,239.078 167.286,239.078 165.5,241.5C 163.2,241.132 161.033,241.132 159,241.5C 157.507,239.692 155.673,239.692 153.5,241.5C 151.389,241.514 149.555,240.848 148,239.5C 146.278,239.611 146.112,240.111 147.5,241C 146.451,241.492 145.451,241.326 144.5,240.5C 143.478,240.855 142.811,241.522 142.5,242.5C 139.043,234.586 136.709,226.253 135.5,217.5C 137.166,218.666 138.833,218.666 140.5,217.5C 139.494,216.604 139.494,215.938 140.5,215.5C 141.541,217.991 142.374,217.991 143,215.5C 143.388,216.428 144.055,217.095 145,217.5C 147.225,215.722 149.725,215.222 152.5,216C 151.304,216.654 151.304,217.154 152.5,217.5C 153.192,216.975 153.692,216.308 154,215.5C 156.733,217.105 159.733,218.105 163,218.5C 162.923,217.262 163.089,216.262 163.5,215.5C 164.906,216.427 166.406,217.427 168,218.5C 168.667,215.833 169.333,215.833 170,218.5C 172,217.833 174,217.167 176,216.5C 177.726,217.576 179.559,217.743 181.5,217C 180.304,216.346 180.304,215.846 181.5,215.5C 182.167,216.167 182.833,216.833 183.5,217.5C 186.35,217.256 189.183,216.923 192,216.5C 192.333,217.167 192.667,217.833 193,218.5C 194.459,215.557 196.126,215.224 198,217.5C 198.971,216.802 200.137,216.802 201.5,217.5C 202.167,217.333 202.833,217.167 203.5,217C 202.304,216.346 202.304,215.846 203.5,215.5C 204.192,216.025 204.692,216.692 205,217.5C 206.154,216.257 207.488,215.257 209,214.5C 210.333,217.167 211.667,217.167 213,214.5C 213.971,215.198 215.137,215.198 216.5,214.5C 217.833,215.167 219.167,215.833 220.5,216.5C 222.914,216.339 225.414,216.339 228,216.5C 228.945,216.095 229.612,215.428 230,214.5C 230.333,215.167 230.667,215.833 231,216.5C 232.859,215.888 234.859,215.888 237,216.5C 238.681,216.392 239.848,215.725 240.5,214.5 Z"/></g>
<g><path style="opacity:1" fill="#72797e" d="M 291.5,238.5 C 312.214,242.429 332.548,247.429 352.5,253.5C 351.719,255.322 350.552,255.989 349,255.5C 347.667,254.833 346.667,253.833 346,252.5C 345.517,253.448 345.351,254.448 345.5,255.5C 342.938,254.82 340.271,254.653 337.5,255C 336.667,254.167 335.833,253.333 335,252.5C 334.751,253.624 334.251,254.624 333.5,255.5C 331.316,256.108 329.316,255.441 327.5,253.5C 326.304,253.846 326.304,254.346 327.5,255C 324.805,255.254 322.305,255.421 320,255.5C 318.451,252.997 316.784,252.997 315,255.5C 312.658,254.822 310.324,255.155 308,256.5C 306.324,255.939 304.991,254.939 304,253.5C 303.692,254.308 303.192,254.975 302.5,255.5C 300.169,255.55 298.003,255.217 296,254.5C 294.209,256.513 292.875,256.513 292,254.5C 291.333,255.833 290.667,255.833 290,254.5C 289.667,255.167 289.333,255.833 289,256.5C 287.108,255.87 285.441,254.87 284,253.5C 283.667,254.167 283.333,254.833 283,255.5C 282.333,254.167 281.667,254.167 281,255.5C 280.333,252.833 279.667,252.833 279,255.5C 278.692,254.692 278.192,254.025 277.5,253.5C 276.355,257.038 274.522,257.372 272,254.5C 271.667,255.167 271.333,255.833 271,256.5C 270.581,255.328 269.915,254.328 269,253.5C 268.333,254.833 267.667,254.833 267,253.5C 266.085,254.328 265.419,255.328 265,256.5C 261.274,256.076 257.774,256.076 254.5,256.5C 253.5,255.833 252.5,255.167 251.5,254.5C 248.667,254.582 245.667,254.748 242.5,255C 241.285,257.096 240.451,256.929 240,254.5C 239.692,255.308 239.192,255.975 238.5,256.5C 236.009,256.026 233.343,256.026 230.5,256.5C 226.557,256.367 223.39,255.701 221,254.5C 219.384,255.545 217.717,256.545 216,257.5C 215.051,254.8 213.217,253.967 210.5,255C 211.451,255.718 211.617,256.551 211,257.5C 209.667,256.167 208.333,256.167 207,257.5C 205.221,255.983 205.721,255.149 208.5,255C 206.193,254.221 204.193,254.721 202.5,256.5C 201.808,255.975 201.308,255.308 201,254.5C 199.139,255.764 197.139,256.764 195,257.5C 192.742,256.747 190.742,256.747 189,257.5C 188.667,256.833 188.333,256.167 188,255.5C 186.647,256.704 184.981,257.371 183,257.5C 179.481,256.315 175.981,256.315 172.5,257.5C 170.307,257.674 168.473,257.007 167,255.5C 166.259,256.641 165.425,256.641 164.5,255.5C 163.304,255.846 163.304,256.346 164.5,257C 162.438,257.564 160.605,257.064 159,255.5C 157.902,256.384 157.402,257.384 157.5,258.5C 155.65,257.758 154.984,256.758 155.5,255.5C 154.833,256.167 154.167,256.833 153.5,257.5C 152.313,256.347 151.313,256.347 150.5,257.5C 147.073,252.984 144.407,247.984 142.5,242.5C 142.811,241.522 143.478,240.855 144.5,240.5C 145.451,241.326 146.451,241.492 147.5,241C 146.112,240.111 146.278,239.611 148,239.5C 149.555,240.848 151.389,241.514 153.5,241.5C 155.673,239.692 157.507,239.692 159,241.5C 161.033,241.132 163.2,241.132 165.5,241.5C 167.286,239.078 168.952,239.078 170.5,241.5C 171.425,240.359 172.259,240.359 173,241.5C 175.264,237.68 176.764,237.514 177.5,241C 178.667,241.167 179.833,241.333 181,241.5C 184.467,241.3 187.967,241.3 191.5,241.5C 192.5,240.833 193.5,240.167 194.5,239.5C 196.991,240.373 199.657,240.706 202.5,240.5C 204.5,239.833 206.5,239.167 208.5,238.5C 210.457,239.56 212.457,240.56 214.5,241.5C 216.508,237.892 219.008,237.558 222,240.5C 222.667,239.167 223.333,239.167 224,240.5C 224.626,238.009 225.459,238.009 226.5,240.5C 227.711,239.61 229.045,239.61 230.5,240.5C 232.104,240.061 233.604,239.394 235,238.5C 236,239.167 237,239.833 238,240.5C 243.82,239.681 249.154,239.681 254,240.5C 254.667,237.833 255.333,237.833 256,240.5C 257.808,240.112 259.475,240.112 261,240.5C 262.586,239.624 264.086,238.624 265.5,237.5C 265.833,238.167 266.167,238.833 266.5,239.5C 267.5,238.833 268.5,238.167 269.5,237.5C 269.296,238.529 269.796,239.529 271,240.5C 271.333,239.833 271.667,239.167 272,238.5C 274.37,239.128 276.703,239.461 279,239.5C 279.956,238.106 281.289,237.439 283,237.5C 285.355,238.513 287.689,239.513 290,240.5C 290.717,239.956 291.217,239.289 291.5,238.5 Z"/></g>
<g><path style="opacity:1" fill="#000000" d="M 368.5,254.5 C 371.5,254.5 374.5,254.5 377.5,254.5C 377.5,257.5 377.5,260.5 377.5,263.5C 374.5,263.5 371.5,263.5 368.5,263.5C 368.5,260.5 368.5,257.5 368.5,254.5 Z"/></g>
<g><path style="opacity:1" fill="#6a7277" d="M 352.5,253.5 C 356.941,254.424 361.275,255.758 365.5,257.5C 366.48,260.086 366.813,262.753 366.5,265.5C 371.412,266.026 376.078,265.359 380.5,263.5C 386.394,266.608 392.061,269.941 397.5,273.5C 395.847,274.605 394.18,274.771 392.5,274C 393.328,274.915 394.328,275.581 395.5,276C 393.572,278.455 391.738,278.622 390,276.5C 386.758,278.91 384.092,278.577 382,275.5C 380.992,275.982 379.825,276.148 378.5,276C 379.696,276.654 379.696,277.154 378.5,277.5C 377.017,275.054 375.851,275.388 375,278.5C 373.225,275.956 371.392,275.956 369.5,278.5C 368.808,277.975 368.308,277.308 368,276.5C 367.667,276.833 367.333,277.167 367,277.5C 367.077,276.262 366.911,275.262 366.5,274.5C 365.561,276.053 364.394,277.387 363,278.5C 359.943,278.316 356.943,278.316 354,278.5C 352.684,275.972 351.517,275.972 350.5,278.5C 349.522,278.023 348.689,277.357 348,276.5C 347.667,277.167 347.333,277.833 347,278.5C 344.482,277.864 341.482,277.864 338,278.5C 335.329,278.726 332.996,278.059 331,276.5C 330.667,277.167 330.333,277.833 330,278.5C 326.842,278.66 323.842,278.326 321,277.5C 320.309,279.891 319.309,279.891 318,277.5C 316.951,278.517 315.784,278.684 314.5,278C 315.696,277.346 315.696,276.846 314.5,276.5C 311.505,279.363 308.505,279.697 305.5,277.5C 304.228,277.57 303.062,277.903 302,278.5C 301.383,277.551 301.549,276.718 302.5,276C 307.825,276.489 307.825,275.989 302.5,274.5C 301.5,274.833 300.5,275.167 299.5,275.5C 298.359,276.425 298.359,277.259 299.5,278C 296.937,278.918 294.77,278.418 293,276.5C 292.667,277.167 292.333,277.833 292,278.5C 290.599,276.808 288.766,276.141 286.5,276.5C 285.807,280.278 284.64,280.278 283,276.5C 282.167,277.5 281.333,278.5 280.5,279.5C 276.922,279.255 273.255,279.255 269.5,279.5C 268.167,278.833 266.833,278.167 265.5,277.5C 262.256,280.043 259.089,280.043 256,277.5C 255.309,279.891 254.309,279.891 253,277.5C 252.333,278.833 251.333,279.833 250,280.5C 249.821,278.576 249.654,276.909 249.5,275.5C 248.673,277.162 247.507,278.495 246,279.5C 244.575,278.788 243.075,278.621 241.5,279C 242.5,278 243.5,277 244.5,276C 243.175,276.148 242.008,275.982 241,275.5C 239.354,277.055 239.021,278.721 240,280.5C 239.311,279.643 238.478,278.977 237.5,278.5C 234.077,279.229 230.744,279.562 227.5,279.5C 225.41,276.991 223.577,277.325 222,280.5C 219.848,278.723 220.015,277.223 222.5,276C 218.282,275.196 215.116,276.696 213,280.5C 210.148,280.352 206.981,280.352 203.5,280.5C 201.115,278.461 198.948,278.461 197,280.5C 195.204,279.233 193.371,279.233 191.5,280.5C 190.289,279.726 190.289,278.893 191.5,278C 190.234,277.691 189.067,277.191 188,276.5C 187.689,277.742 188.189,278.742 189.5,279.5C 189.167,279.833 188.833,280.167 188.5,280.5C 187.033,279.305 185.533,279.305 184,280.5C 182.779,279.728 181.779,278.728 181,277.5C 180.437,280.142 178.937,280.809 176.5,279.5C 175.478,279.855 174.811,280.522 174.5,281.5C 164.833,275.167 156.833,267.167 150.5,257.5C 151.313,256.347 152.313,256.347 153.5,257.5C 154.167,256.833 154.833,256.167 155.5,255.5C 154.984,256.758 155.65,257.758 157.5,258.5C 157.402,257.384 157.902,256.384 159,255.5C 160.605,257.064 162.438,257.564 164.5,257C 163.304,256.346 163.304,255.846 164.5,255.5C 165.425,256.641 166.259,256.641 167,255.5C 168.473,257.007 170.307,257.674 172.5,257.5C 175.981,256.315 179.481,256.315 183,257.5C 184.981,257.371 186.647,256.704 188,255.5C 188.333,256.167 188.667,256.833 189,257.5C 190.742,256.747 192.742,256.747 195,257.5C 197.139,256.764 199.139,255.764 201,254.5C 201.308,255.308 201.808,255.975 202.5,256.5C 204.193,254.721 206.193,254.221 208.5,255C 205.721,255.149 205.221,255.983 207,257.5C 208.333,256.167 209.667,256.167 211,257.5C 211.617,256.551 211.451,255.718 210.5,255C 213.217,253.967 215.051,254.8 216,257.5C 217.717,256.545 219.384,255.545 221,254.5C 223.39,255.701 226.557,256.367 230.5,256.5C 233.343,256.026 236.009,256.026 238.5,256.5C 239.192,255.975 239.692,255.308 240,254.5C 240.451,256.929 241.285,257.096 242.5,255C 245.667,254.748 248.667,254.582 251.5,254.5C 252.5,255.167 253.5,255.833 254.5,256.5C 257.774,256.076 261.274,256.076 265,256.5C 265.419,255.328 266.085,254.328 267,253.5C 267.667,254.833 268.333,254.833 269,253.5C 269.915,254.328 270.581,255.328 271,256.5C 271.333,255.833 271.667,255.167 272,254.5C 274.522,257.372 276.355,257.038 277.5,253.5C 278.192,254.025 278.692,254.692 279,255.5C 279.667,252.833 280.333,252.833 281,255.5C 281.667,254.167 282.333,254.167 283,255.5C 283.333,254.833 283.667,254.167 284,253.5C 285.441,254.87 287.108,255.87 289,256.5C 289.333,255.833 289.667,255.167 290,254.5C 290.667,255.833 291.333,255.833 292,254.5C 292.875,256.513 294.209,256.513 296,254.5C 298.003,255.217 300.169,255.55 302.5,255.5C 303.192,254.975 303.692,254.308 304,253.5C 304.991,254.939 306.324,255.939 308,256.5C 310.324,255.155 312.658,254.822 315,255.5C 316.784,252.997 318.451,252.997 320,255.5C 322.305,255.421 324.805,255.254 327.5,255C 326.304,254.346 326.304,253.846 327.5,253.5C 329.316,255.441 331.316,256.108 333.5,255.5C 334.251,254.624 334.751,253.624 335,252.5C 335.833,253.333 336.667,254.167 337.5,255C 340.271,254.653 342.938,254.82 345.5,255.5C 345.351,254.448 345.517,253.448 346,252.5C 346.667,253.833 347.667,254.833 349,255.5C 350.552,255.989 351.719,255.322 352.5,253.5 Z"/></g>
<g><path style="opacity:1" fill="#666e73" d="M 397.5,273.5 C 407.33,278.99 415.996,285.99 423.5,294.5C 420.635,294.945 418.135,294.278 416,292.5C 415.333,293.167 414.667,293.833 414,294.5C 413.029,293.802 411.863,293.802 410.5,294.5C 408.185,294.201 408.185,293.368 410.5,292C 408.491,292.594 406.491,292.427 404.5,291.5C 402.109,293.747 399.275,295.081 396,295.5C 395.085,294.672 394.419,293.672 394,292.5C 393,293.167 392,293.833 391,294.5C 389.095,293.56 386.928,293.227 384.5,293.5C 381.432,295.607 378.765,294.94 376.5,291.5C 374.999,292.752 373.332,293.752 371.5,294.5C 370.389,293.389 369.055,292.722 367.5,292.5C 364.902,293.048 362.235,294.048 359.5,295.5C 359.649,294.448 359.483,293.448 359,292.5C 357.414,293.376 355.914,294.376 354.5,295.5C 353.522,295.023 352.689,294.357 352,293.5C 351.311,294.357 350.478,295.023 349.5,295.5C 347.298,294.22 345.132,294.22 343,295.5C 340.215,291.587 337.382,291.587 334.5,295.5C 333.833,294.833 333.167,294.167 332.5,293.5C 332.167,294.167 331.833,294.833 331.5,295.5C 330.28,294.289 329.113,294.289 328,295.5C 327.333,292.833 326.667,292.833 326,295.5C 324.981,294.313 323.814,293.313 322.5,292.5C 321.289,293.274 321.289,294.107 322.5,295C 322,295.167 321.5,295.333 321,295.5C 320.454,294.711 319.787,293.711 319,292.5C 318.431,296.361 317.598,296.361 316.5,292.5C 316.693,293.688 316.193,295.022 315,296.5C 313.667,295.167 312.333,293.833 311,292.5C 309.667,293.833 308.333,295.167 307,296.5C 303.893,296.047 300.893,296.047 298,296.5C 297,295.833 296,295.167 295,294.5C 293.434,293.939 292.101,294.606 291,296.5C 290.374,292.864 289.207,292.864 287.5,296.5C 287.704,295.471 287.204,294.471 286,293.5C 284.307,294.184 282.807,295.184 281.5,296.5C 278.94,296.393 276.44,296.393 274,296.5C 271.976,296.2 271.476,295.367 272.5,294C 268.692,292.819 265.525,293.652 263,296.5C 262.684,295.366 261.851,294.366 260.5,293.5C 258.777,294.552 257.11,294.552 255.5,293.5C 254.167,294.5 252.833,295.5 251.5,296.5C 250.158,295.098 249.324,295.431 249,297.5C 248.667,296.833 248.333,296.167 248,295.5C 246.055,296.692 244.055,296.692 242,295.5C 240.238,295.944 240.405,296.444 242.5,297C 241.552,297.483 240.552,297.649 239.5,297.5C 239.178,294.188 237.845,294.188 235.5,297.5C 232.897,297.017 230.397,295.684 228,293.5C 227.5,293.833 227,294.167 226.5,294.5C 227.326,295.451 227.492,296.451 227,297.5C 226.333,296.167 225.667,296.167 225,297.5C 223.612,293.845 221.612,293.511 219,296.5C 216.475,296.263 214.141,295.597 212,294.5C 211.383,295.449 211.549,296.282 212.5,297C 210.112,297.865 208.612,297.032 208,294.5C 206.611,298.272 205.611,298.272 205,294.5C 204.487,295.527 203.987,296.527 203.5,297.5C 199.392,296.531 195.559,294.864 192,292.5C 191.502,289.183 191.335,285.85 191.5,282.5C 186.678,281.935 182.178,282.601 178,284.5C 176.855,283.364 175.688,282.364 174.5,281.5C 174.811,280.522 175.478,279.855 176.5,279.5C 178.937,280.809 180.437,280.142 181,277.5C 181.779,278.728 182.779,279.728 184,280.5C 185.533,279.305 187.033,279.305 188.5,280.5C 188.833,280.167 189.167,279.833 189.5,279.5C 188.189,278.742 187.689,277.742 188,276.5C 189.067,277.191 190.234,277.691 191.5,278C 190.289,278.893 190.289,279.726 191.5,280.5C 193.371,279.233 195.204,279.233 197,280.5C 198.948,278.461 201.115,278.461 203.5,280.5C 206.981,280.352 210.148,280.352 213,280.5C 215.116,276.696 218.282,275.196 222.5,276C 220.015,277.223 219.848,278.723 222,280.5C 223.577,277.325 225.41,276.991 227.5,279.5C 230.744,279.562 234.077,279.229 237.5,278.5C 238.478,278.977 239.311,279.643 240,280.5C 239.021,278.721 239.354,277.055 241,275.5C 242.008,275.982 243.175,276.148 244.5,276C 243.5,277 242.5,278 241.5,279C 243.075,278.621 244.575,278.788 246,279.5C 247.507,278.495 248.673,277.162 249.5,275.5C 249.654,276.909 249.821,278.576 250,280.5C 251.333,279.833 252.333,278.833 253,277.5C 254.309,279.891 255.309,279.891 256,277.5C 259.089,280.043 262.256,280.043 265.5,277.5C 266.833,278.167 268.167,278.833 269.5,279.5C 273.255,279.255 276.922,279.255 280.5,279.5C 281.333,278.5 282.167,277.5 283,276.5C 284.64,280.278 285.807,280.278 286.5,276.5C 288.766,276.141 290.599,276.808 292,278.5C 292.333,277.833 292.667,277.167 293,276.5C 294.77,278.418 296.937,278.918 299.5,278C 298.359,277.259 298.359,276.425 299.5,275.5C 300.5,275.167 301.5,274.833 302.5,274.5C 307.825,275.989 307.825,276.489 302.5,276C 301.549,276.718 301.383,277.551 302,278.5C 303.062,277.903 304.228,277.57 305.5,277.5C 308.505,279.697 311.505,279.363 314.5,276.5C 315.696,276.846 315.696,277.346 314.5,278C 315.784,278.684 316.951,278.517 318,277.5C 319.309,279.891 320.309,279.891 321,277.5C 323.842,278.326 326.842,278.66 330,278.5C 330.333,277.833 330.667,277.167 331,276.5C 332.996,278.059 335.329,278.726 338,278.5C 341.482,277.864 344.482,277.864 347,278.5C 347.333,277.833 347.667,277.167 348,276.5C 348.689,277.357 349.522,278.023 350.5,278.5C 351.517,275.972 352.684,275.972 354,278.5C 356.943,278.316 359.943,278.316 363,278.5C 364.394,277.387 365.561,276.053 366.5,274.5C 366.911,275.262 367.077,276.262 367,277.5C 367.333,277.167 367.667,276.833 368,276.5C 368.308,277.308 368.808,277.975 369.5,278.5C 371.392,275.956 373.225,275.956 375,278.5C 375.851,275.388 377.017,275.054 378.5,277.5C 379.696,277.154 379.696,276.654 378.5,276C 379.825,276.148 380.992,275.982 382,275.5C 384.092,278.577 386.758,278.91 390,276.5C 391.738,278.622 393.572,278.455 395.5,276C 394.328,275.581 393.328,274.915 392.5,274C 394.18,274.771 395.847,274.605 397.5,273.5 Z"/></g>
<g><path style="opacity:1" fill="#000000" d="M 180.5,284.5 C 183.5,284.5 186.5,284.5 189.5,284.5C 189.5,287.5 189.5,290.5 189.5,293.5C 186.5,293.5 183.5,293.5 180.5,293.5C 180.5,290.5 180.5,287.5 180.5,284.5 Z"/></g>
<g><path style="opacity:1" fill="#62696d" d="M 423.5,294.5 C 424.793,296.296 426.293,297.963 428,299.5C 428.499,303.486 428.666,307.486 428.5,311.5C 425.974,312.076 423.474,312.41 421,312.5C 420.167,312.333 419.333,312.167 418.5,312C 418.833,311.667 419.167,311.333 419.5,311C 418.584,310.626 417.75,310.126 417,309.5C 414.145,312.75 411.145,313.083 408,310.5C 407.692,311.308 407.192,311.975 406.5,312.5C 405.5,311.167 404.5,311.167 403.5,312.5C 402.808,311.975 402.308,311.308 402,310.5C 399.463,312.45 396.796,313.116 394,312.5C 392.699,311.107 391.199,310.607 389.5,311C 390.167,311.333 390.833,311.667 391.5,312C 389.236,312.236 387.069,312.736 385,313.5C 383.938,312.101 382.605,311.101 381,310.5C 378.742,311.253 376.742,311.253 375,310.5C 374.125,312.513 372.791,312.513 371,310.5C 370.333,311.167 369.667,311.833 369,312.5C 368.029,311.802 366.863,311.802 365.5,312.5C 364.353,312.182 363.519,311.516 363,310.5C 362.667,311.167 362.333,311.833 362,312.5C 359.928,309.846 358.261,310.18 357,313.5C 355.982,311.436 354.649,311.102 353,312.5C 351.739,312.241 350.739,311.574 350,310.5C 348.144,313.119 345.644,313.952 342.5,313C 343.902,311.658 343.569,310.824 341.5,310.5C 339.185,310.799 339.185,311.632 341.5,313C 341.167,313.167 340.833,313.333 340.5,313.5C 338.345,311.994 336.012,310.994 333.5,310.5C 332.091,311.457 330.258,312.457 328,313.5C 326.106,313.461 325.106,312.794 325,311.5C 322.499,313.457 319.833,314.123 317,313.5C 316.085,312.672 315.419,311.672 315,310.5C 314.592,312.41 313.425,313.41 311.5,313.5C 307.98,312.007 304.146,311.34 300,311.5C 299.749,312.986 298.415,313.986 296,314.5C 295.333,313.833 294.667,313.167 294,312.5C 292.533,312.419 290.866,312.753 289,313.5C 287,312.833 285,312.167 283,311.5C 281.072,311.933 279.239,312.6 277.5,313.5C 275.613,311.867 274.113,312.2 273,314.5C 272.667,313.833 272.333,313.167 272,312.5C 271.29,313.973 270.124,314.64 268.5,314.5C 268.719,313.325 268.386,312.325 267.5,311.5C 267.089,312.262 266.923,313.262 267,314.5C 266.333,313.833 265.667,313.167 265,312.5C 263.542,313.747 262.042,313.747 260.5,312.5C 259.478,312.855 258.811,313.522 258.5,314.5C 239.237,311.441 220.904,305.774 203.5,297.5C 203.987,296.527 204.487,295.527 205,294.5C 205.611,298.272 206.611,298.272 208,294.5C 208.612,297.032 210.112,297.865 212.5,297C 211.549,296.282 211.383,295.449 212,294.5C 214.141,295.597 216.475,296.263 219,296.5C 221.612,293.511 223.612,293.845 225,297.5C 225.667,296.167 226.333,296.167 227,297.5C 227.492,296.451 227.326,295.451 226.5,294.5C 227,294.167 227.5,293.833 228,293.5C 230.397,295.684 232.897,297.017 235.5,297.5C 237.845,294.188 239.178,294.188 239.5,297.5C 240.552,297.649 241.552,297.483 242.5,297C 240.405,296.444 240.238,295.944 242,295.5C 244.055,296.692 246.055,296.692 248,295.5C 248.333,296.167 248.667,296.833 249,297.5C 249.324,295.431 250.158,295.098 251.5,296.5C 252.833,295.5 254.167,294.5 255.5,293.5C 257.11,294.552 258.777,294.552 260.5,293.5C 261.851,294.366 262.684,295.366 263,296.5C 265.525,293.652 268.692,292.819 272.5,294C 271.476,295.367 271.976,296.2 274,296.5C 276.44,296.393 278.94,296.393 281.5,296.5C 282.807,295.184 284.307,294.184 286,293.5C 287.204,294.471 287.704,295.471 287.5,296.5C 289.207,292.864 290.374,292.864 291,296.5C 292.101,294.606 293.434,293.939 295,294.5C 296,295.167 297,295.833 298,296.5C 300.893,296.047 303.893,296.047 307,296.5C 308.333,295.167 309.667,293.833 311,292.5C 312.333,293.833 313.667,295.167 315,296.5C 316.193,295.022 316.693,293.688 316.5,292.5C 317.598,296.361 318.431,296.361 319,292.5C 319.787,293.711 320.454,294.711 321,295.5C 321.5,295.333 322,295.167 322.5,295C 321.289,294.107 321.289,293.274 322.5,292.5C 323.814,293.313 324.981,294.313 326,295.5C 326.667,292.833 327.333,292.833 328,295.5C 329.113,294.289 330.28,294.289 331.5,295.5C 331.833,294.833 332.167,294.167 332.5,293.5C 333.167,294.167 333.833,294.833 334.5,295.5C 337.382,291.587 340.215,291.587 343,295.5C 345.132,294.22 347.298,294.22 349.5,295.5C 350.478,295.023 351.311,294.357 352,293.5C 352.689,294.357 353.522,295.023 354.5,295.5C 355.914,294.376 357.414,293.376 359,292.5C 359.483,293.448 359.649,294.448 359.5,295.5C 362.235,294.048 364.902,293.048 367.5,292.5C 369.055,292.722 370.389,293.389 371.5,294.5C 373.332,293.752 374.999,292.752 376.5,291.5C 378.765,294.94 381.432,295.607 384.5,293.5C 386.928,293.227 389.095,293.56 391,294.5C 392,293.833 393,293.167 394,292.5C 394.419,293.672 395.085,294.672 396,295.5C 399.275,295.081 402.109,293.747 404.5,291.5C 406.491,292.427 408.491,292.594 410.5,292C 408.185,293.368 408.185,294.201 410.5,294.5C 411.863,293.802 413.029,293.802 414,294.5C 414.667,293.833 415.333,293.167 416,292.5C 418.135,294.278 420.635,294.945 423.5,294.5 Z"/></g>
<g><path style="opacity:1" fill="#000000" d="M 430.5,300.5 C 433.5,300.5 436.5,300.5 439.5,300.5C 439.5,303.5 439.5,306.5 439.5,309.5C 436.5,309.5 433.5,309.5 430.5,309.5C 430.5,306.5 430.5,303.5 430.5,300.5 Z"/></g>
<g><path style="opacity:1" fill="#5b6267" d="M 428.5,311.5 C 431.247,311.187 433.914,311.52 436.5,312.5C 439.728,318.286 442.395,324.286 444.5,330.5C 441.684,330.175 439.184,329.175 437,327.5C 436,328.167 435,328.833 434,329.5C 429.559,328.619 425.225,328.619 421,329.5C 420.667,328.833 420.333,328.167 420,327.5C 418.899,329.394 417.566,330.061 416,329.5C 415.612,328.572 414.945,327.905 414,327.5C 411.851,329.458 409.518,329.791 407,328.5C 406.311,329.357 405.478,330.023 404.5,330.5C 402.224,329.787 399.891,329.287 397.5,329C 399.595,328.444 399.762,327.944 398,327.5C 396.333,328.167 394.667,328.833 393,329.5C 390.389,328.676 387.889,328.343 385.5,328.5C 384.252,329.04 383.085,329.707 382,330.5C 380.84,328.203 379.84,328.536 379,331.5C 377.982,329.436 376.649,329.102 375,330.5C 373.715,330.05 372.548,329.383 371.5,328.5C 369.316,327.892 367.316,328.559 365.5,330.5C 364.5,329.833 363.5,329.167 362.5,328.5C 361.672,329.415 360.672,330.081 359.5,330.5C 356.391,330.128 353.391,330.128 350.5,330.5C 350.167,329.833 349.833,329.167 349.5,328.5C 348.167,331.167 346.833,331.167 345.5,328.5C 344.051,329.617 342.384,330.284 340.5,330.5C 337.584,330.732 335.75,330.066 335,328.5C 333.876,329.484 332.376,330.151 330.5,330.5C 327.9,329.552 325.4,329.218 323,329.5C 322.283,330.044 321.783,330.711 321.5,331.5C 300.581,325.023 279.581,319.356 258.5,314.5C 258.811,313.522 259.478,312.855 260.5,312.5C 262.042,313.747 263.542,313.747 265,312.5C 265.667,313.167 266.333,313.833 267,314.5C 266.923,313.262 267.089,312.262 267.5,311.5C 268.386,312.325 268.719,313.325 268.5,314.5C 270.124,314.64 271.29,313.973 272,312.5C 272.333,313.167 272.667,313.833 273,314.5C 274.113,312.2 275.613,311.867 277.5,313.5C 279.239,312.6 281.072,311.933 283,311.5C 285,312.167 287,312.833 289,313.5C 290.866,312.753 292.533,312.419 294,312.5C 294.667,313.167 295.333,313.833 296,314.5C 298.415,313.986 299.749,312.986 300,311.5C 304.146,311.34 307.98,312.007 311.5,313.5C 313.425,313.41 314.592,312.41 315,310.5C 315.419,311.672 316.085,312.672 317,313.5C 319.833,314.123 322.499,313.457 325,311.5C 325.106,312.794 326.106,313.461 328,313.5C 330.258,312.457 332.091,311.457 333.5,310.5C 336.012,310.994 338.345,311.994 340.5,313.5C 340.833,313.333 341.167,313.167 341.5,313C 339.185,311.632 339.185,310.799 341.5,310.5C 343.569,310.824 343.902,311.658 342.5,313C 345.644,313.952 348.144,313.119 350,310.5C 350.739,311.574 351.739,312.241 353,312.5C 354.649,311.102 355.982,311.436 357,313.5C 358.261,310.18 359.928,309.846 362,312.5C 362.333,311.833 362.667,311.167 363,310.5C 363.519,311.516 364.353,312.182 365.5,312.5C 366.863,311.802 368.029,311.802 369,312.5C 369.667,311.833 370.333,311.167 371,310.5C 372.791,312.513 374.125,312.513 375,310.5C 376.742,311.253 378.742,311.253 381,310.5C 382.605,311.101 383.938,312.101 385,313.5C 387.069,312.736 389.236,312.236 391.5,312C 390.833,311.667 390.167,311.333 389.5,311C 391.199,310.607 392.699,311.107 394,312.5C 396.796,313.116 399.463,312.45 402,310.5C 402.308,311.308 402.808,311.975 403.5,312.5C 404.5,311.167 405.5,311.167 406.5,312.5C 407.192,311.975 407.692,311.308 408,310.5C 411.145,313.083 414.145,312.75 417,309.5C 417.75,310.126 418.584,310.626 419.5,311C 419.167,311.333 418.833,311.667 418.5,312C 419.333,312.167 420.167,312.333 421,312.5C 423.474,312.41 425.974,312.076 428.5,311.5 Z"/></g>
<g><path style="opacity:1" fill="#565c60" d="M 444.5,330.5 C 445.497,334.479 446.497,338.479 447.5,342.5C 446.153,341.829 444.986,341.829 444,342.5C 443.333,339.833 442.667,339.833 442,342.5C 440.62,339.942 439.12,339.942 437.5,342.5C 436.522,342.023 435.689,341.357 435,340.5C 433.437,343.044 431.937,343.044 430.5,340.5C 428.952,342.922 427.286,342.922 425.5,340.5C 424.833,341.167 424.167,341.833 423.5,342.5C 422.389,339.798 420.389,339.798 417.5,342.5C 406.07,342.548 394.57,342.214 383,341.5C 382.161,342.624 380.994,343.291 379.5,343.5C 376.571,343.008 373.737,343.008 371,343.5C 370.333,340.833 369.667,340.833 369,343.5C 363.921,342.913 358.421,342.913 352.5,343.5C 348.353,342.675 344.019,342.175 339.5,342C 333.897,337.703 327.897,334.203 321.5,331.5C 321.783,330.711 322.283,330.044 323,329.5C 325.4,329.218 327.9,329.552 330.5,330.5C 332.376,330.151 333.876,329.484 335,328.5C 335.75,330.066 337.584,330.732 340.5,330.5C 342.384,330.284 344.051,329.617 345.5,328.5C 346.833,331.167 348.167,331.167 349.5,328.5C 349.833,329.167 350.167,329.833 350.5,330.5C 353.391,330.128 356.391,330.128 359.5,330.5C 360.672,330.081 361.672,329.415 362.5,328.5C 363.5,329.167 364.5,329.833 365.5,330.5C 367.316,328.559 369.316,327.892 371.5,328.5C 372.548,329.383 373.715,330.05 375,330.5C 376.649,329.102 377.982,329.436 379,331.5C 379.84,328.536 380.84,328.203 382,330.5C 383.085,329.707 384.252,329.04 385.5,328.5C 387.889,328.343 390.389,328.676 393,329.5C 394.667,328.833 396.333,328.167 398,327.5C 399.762,327.944 399.595,328.444 397.5,329C 399.891,329.287 402.224,329.787 404.5,330.5C 405.478,330.023 406.311,329.357 407,328.5C 409.518,329.791 411.851,329.458 414,327.5C 414.945,327.905 415.612,328.572 416,329.5C 417.566,330.061 418.899,329.394 420,327.5C 420.333,328.167 420.667,328.833 421,329.5C 425.225,328.619 429.559,328.619 434,329.5C 435,328.833 436,328.167 437,327.5C 439.184,329.175 441.684,330.175 444.5,330.5 Z"/></g>
<g><path style="opacity:1" fill="#000000" d="M 118.5,343.5 C 121.5,343.5 124.5,343.5 127.5,343.5C 127.5,346.5 127.5,349.5 127.5,352.5C 124.5,352.5 121.5,352.5 118.5,352.5C 118.5,349.5 118.5,346.5 118.5,343.5 Z"/></g>
<g><path style="opacity:1" fill="#000000" d="M 212.5,344.5 C 215.5,344.5 218.5,344.5 221.5,344.5C 221.5,347.5 221.5,350.5 221.5,353.5C 218.5,353.5 215.5,353.5 212.5,353.5C 212.5,350.5 212.5,347.5 212.5,344.5 Z"/></g>
<g><path style="opacity:1" fill="#000000" d="M 341.5,344.5 C 344.5,344.5 347.5,344.5 350.5,344.5C 350.5,347.5 350.5,350.5 350.5,353.5C 347.5,353.5 344.5,353.5 341.5,353.5C 341.5,350.5 341.5,347.5 341.5,344.5 Z"/></g>
<g><path style="opacity:1" fill="#4f5559" d="M 447.5,342.5 C 449.131,349.022 449.798,355.689 449.5,362.5C 445.655,362.289 441.655,362.122 437.5,362C 438.696,361.346 438.696,360.846 437.5,360.5C 436.784,361.311 435.95,361.978 435,362.5C 430.266,362.546 425.432,362.213 420.5,361.5C 418.813,361.76 417.313,362.427 416,363.5C 414.333,362.833 412.667,362.167 411,361.5C 408.517,362.244 405.851,362.244 403,361.5C 401.684,364.028 400.517,364.028 399.5,361.5C 397.024,364.069 394.524,364.069 392,361.5C 390.48,362.507 388.813,363.173 387,363.5C 382.35,362.198 377.683,362.198 373,363.5C 371.216,362.691 369.383,362.024 367.5,361.5C 364.832,363.469 361.999,363.802 359,362.5C 357.172,364.081 355.172,365.415 353,366.5C 352.79,368.058 352.29,369.391 351.5,370.5C 351.745,365.946 351.412,361.446 350.5,357C 352.299,352.705 352.965,348.205 352.5,343.5C 358.421,342.913 363.921,342.913 369,343.5C 369.667,340.833 370.333,340.833 371,343.5C 373.737,343.008 376.571,343.008 379.5,343.5C 380.994,343.291 382.161,342.624 383,341.5C 394.57,342.214 406.07,342.548 417.5,342.5C 420.389,339.798 422.389,339.798 423.5,342.5C 424.167,341.833 424.833,341.167 425.5,340.5C 427.286,342.922 428.952,342.922 430.5,340.5C 431.937,343.044 433.437,343.044 435,340.5C 435.689,341.357 436.522,342.023 437.5,342.5C 439.12,339.942 440.62,339.942 442,342.5C 442.667,339.833 443.333,339.833 444,342.5C 444.986,341.829 446.153,341.829 447.5,342.5 Z"/></g>
<g><path style="opacity:1" fill="#4e5457" d="M 218.5,362.5 C 217.312,361.316 216.145,361.316 215,362.5C 214.692,361.692 214.192,361.025 213.5,360.5C 212.452,361.383 211.285,362.05 210,362.5C 207.648,362.265 205.148,362.099 202.5,362C 203.696,361.346 203.696,360.846 202.5,360.5C 201.808,361.025 201.308,361.692 201,362.5C 200.692,361.692 200.192,361.025 199.5,360.5C 198.304,360.846 198.304,361.346 199.5,362C 198.833,362.167 198.167,362.333 197.5,362.5C 195.049,362.376 192.549,362.042 190,361.5C 186.549,364.352 183.549,364.019 181,360.5C 180.612,361.428 179.945,362.095 179,362.5C 174.266,362.546 169.432,362.213 164.5,361.5C 162.813,361.76 161.313,362.427 160,363.5C 156.399,361.318 153.066,361.318 150,363.5C 148.166,361.244 146.499,361.244 145,363.5C 144.692,362.692 144.192,362.025 143.5,361.5C 141.02,361.598 138.52,361.598 136,361.5C 133.016,363.688 129.85,364.021 126.5,362.5C 125.702,362.957 125.369,363.624 125.5,364.5C 124.521,361.375 124.187,358.042 124.5,354.5C 126.167,354.5 127.833,354.5 129.5,354.5C 129.5,352.833 129.5,351.167 129.5,349.5C 156.5,349.5 183.5,349.5 210.5,349.5C 210.5,351.5 210.5,353.5 210.5,355.5C 212.833,355.5 215.167,355.5 217.5,355.5C 217.448,357.903 217.781,360.236 218.5,362.5 Z"/></g>
<g><path style="opacity:1" fill="#474c50" d="M 449.5,362.5 C 449.5,365.833 449.5,369.167 449.5,372.5C 448.542,372.047 447.708,371.381 447,370.5C 444.803,372.731 442.47,372.731 440,370.5C 438.127,369.911 436.46,370.578 435,372.5C 434.261,371.426 433.261,370.759 432,370.5C 431.619,371.482 430.786,372.148 429.5,372.5C 413.258,372.389 397.424,372.055 382,371.5C 380.846,373.957 379.512,373.957 378,371.5C 373.962,372.461 369.796,372.461 365.5,371.5C 362.039,373.235 358.539,373.568 355,372.5C 353.871,374.141 352.371,375.141 350.5,375.5C 351.301,373.958 351.634,372.292 351.5,370.5C 352.29,369.391 352.79,368.058 353,366.5C 355.172,365.415 357.172,364.081 359,362.5C 361.999,363.802 364.832,363.469 367.5,361.5C 369.383,362.024 371.216,362.691 373,363.5C 377.683,362.198 382.35,362.198 387,363.5C 388.813,363.173 390.48,362.507 392,361.5C 394.524,364.069 397.024,364.069 399.5,361.5C 400.517,364.028 401.684,364.028 403,361.5C 405.851,362.244 408.517,362.244 411,361.5C 412.667,362.167 414.333,362.833 416,363.5C 417.313,362.427 418.813,361.76 420.5,361.5C 425.432,362.213 430.266,362.546 435,362.5C 435.95,361.978 436.784,361.311 437.5,360.5C 438.696,360.846 438.696,361.346 437.5,362C 441.655,362.122 445.655,362.289 449.5,362.5 Z"/></g>
<g><path style="opacity:1" fill="#484d50" d="M 218.5,362.5 C 219.833,366.5 221.167,370.5 222.5,374.5C 219.028,373.879 215.695,373.546 212.5,373.5C 211.672,374.415 210.672,375.081 209.5,375.5C 208.137,374.802 206.971,374.802 206,375.5C 205.612,374.572 204.945,373.905 204,373.5C 200.404,374.563 196.904,374.563 193.5,373.5C 192.304,373.846 192.304,374.346 193.5,375C 191.559,375.743 189.726,375.576 188,374.5C 186.691,376.891 185.691,376.891 185,374.5C 181.667,375.833 178.333,375.833 175,374.5C 173,377.167 171,377.167 169,374.5C 167.605,375.815 166.605,375.481 166,373.5C 163.602,376.054 161.269,376.054 159,373.5C 158.667,374.167 158.333,374.833 158,375.5C 152.416,375.348 146.916,375.014 141.5,374.5C 139.311,374.594 137.311,375.261 135.5,376.5C 134.808,375.975 134.308,375.308 134,374.5C 132.246,376.25 130.079,376.917 127.5,376.5C 127.5,377.5 127.5,378.5 127.5,379.5C 126.275,374.71 125.608,369.71 125.5,364.5C 125.369,363.624 125.702,362.957 126.5,362.5C 129.85,364.021 133.016,363.688 136,361.5C 138.52,361.598 141.02,361.598 143.5,361.5C 144.192,362.025 144.692,362.692 145,363.5C 146.499,361.244 148.166,361.244 150,363.5C 153.066,361.318 156.399,361.318 160,363.5C 161.313,362.427 162.813,361.76 164.5,361.5C 169.432,362.213 174.266,362.546 179,362.5C 179.945,362.095 180.612,361.428 181,360.5C 183.549,364.019 186.549,364.352 190,361.5C 192.549,362.042 195.049,362.376 197.5,362.5C 198.167,362.333 198.833,362.167 199.5,362C 198.304,361.346 198.304,360.846 199.5,360.5C 200.192,361.025 200.692,361.692 201,362.5C 201.308,361.692 201.808,361.025 202.5,360.5C 203.696,360.846 203.696,361.346 202.5,362C 205.148,362.099 207.648,362.265 210,362.5C 211.285,362.05 212.452,361.383 213.5,360.5C 214.192,361.025 214.692,361.692 215,362.5C 216.145,361.316 217.312,361.316 218.5,362.5 Z"/></g>
<g><path style="opacity:1" fill="#414649" d="M 449.5,372.5 C 449.55,378.389 448.884,384.056 447.5,389.5C 447.523,386.879 446.189,385.545 443.5,385.5C 440.448,385.781 437.448,385.781 434.5,385.5C 431.764,387.417 429.264,387.417 427,385.5C 426.333,388.167 425.667,388.167 425,385.5C 423.097,385.694 421.263,385.694 419.5,385.5C 418.252,386.04 417.085,386.707 416,387.5C 413.849,387.726 411.683,387.059 409.5,385.5C 409.167,386.167 408.833,386.833 408.5,387.5C 407.459,385.009 406.626,385.009 406,387.5C 405.692,386.692 405.192,386.025 404.5,385.5C 403.167,386.833 401.833,386.833 400.5,385.5C 399.146,387.184 397.479,387.684 395.5,387C 396.696,386.346 396.696,385.846 395.5,385.5C 394.808,386.025 394.308,386.692 394,387.5C 385.521,386.979 377.188,386.979 369,387.5C 368.333,384.833 367.667,384.833 367,387.5C 364.908,386.36 362.741,386.36 360.5,387.5C 359.808,386.975 359.308,386.308 359,385.5C 357.783,386.386 356.449,387.386 355,388.5C 354.667,387.833 354.333,387.167 354,386.5C 351.248,386.605 348.082,386.939 344.5,387.5C 347.552,384.063 349.552,380.063 350.5,375.5C 352.371,375.141 353.871,374.141 355,372.5C 358.539,373.568 362.039,373.235 365.5,371.5C 369.796,372.461 373.962,372.461 378,371.5C 379.512,373.957 380.846,373.957 382,371.5C 397.424,372.055 413.258,372.389 429.5,372.5C 430.786,372.148 431.619,371.482 432,370.5C 433.261,370.759 434.261,371.426 435,372.5C 436.46,370.578 438.127,369.911 440,370.5C 442.47,372.731 444.803,372.731 447,370.5C 447.708,371.381 448.542,372.047 449.5,372.5 Z"/></g>
<g><path style="opacity:1" fill="#42474a" d="M 222.5,374.5 C 224.89,377.566 226.89,380.9 228.5,384.5C 226.169,385.044 223.836,385.377 221.5,385.5C 220.04,383.578 218.373,382.911 216.5,383.5C 215.304,383.846 215.304,384.346 216.5,385C 215.833,385.167 215.167,385.333 214.5,385.5C 207.913,384.336 201.246,384.336 194.5,385.5C 193.252,384.96 192.085,384.293 191,383.5C 188.667,384.5 186.333,385.5 184,386.5C 181.843,383.922 180.677,383.922 180.5,386.5C 179.522,386.023 178.689,385.357 178,384.5C 176.846,386.957 175.512,386.957 174,384.5C 173.692,385.308 173.192,385.975 172.5,386.5C 170.5,385.833 168.5,385.167 166.5,384.5C 161.801,385.636 156.801,385.636 151.5,384.5C 150.808,385.025 150.308,385.692 150,386.5C 143.581,386.084 137.248,385.751 131,385.5C 129.812,386.563 129.312,387.897 129.5,389.5C 128.419,386.373 127.753,383.04 127.5,379.5C 127.5,378.5 127.5,377.5 127.5,376.5C 130.079,376.917 132.246,376.25 134,374.5C 134.308,375.308 134.808,375.975 135.5,376.5C 137.311,375.261 139.311,374.594 141.5,374.5C 146.916,375.014 152.416,375.348 158,375.5C 158.333,374.833 158.667,374.167 159,373.5C 161.269,376.054 163.602,376.054 166,373.5C 166.605,375.481 167.605,375.815 169,374.5C 171,377.167 173,377.167 175,374.5C 178.333,375.833 181.667,375.833 185,374.5C 185.691,376.891 186.691,376.891 188,374.5C 189.726,375.576 191.559,375.743 193.5,375C 192.304,374.346 192.304,373.846 193.5,373.5C 196.904,374.563 200.404,374.563 204,373.5C 204.945,373.905 205.612,374.572 206,375.5C 206.971,374.802 208.137,374.802 209.5,375.5C 210.672,375.081 211.672,374.415 212.5,373.5C 215.695,373.546 219.028,373.879 222.5,374.5 Z"/></g>
<g><path style="opacity:1" fill="#3b3f42" d="M 447.5,389.5 C 447.675,391.621 447.341,393.621 446.5,395.5C 445.25,395.423 444.417,394.756 444,393.5C 443,394.167 442,394.833 441,395.5C 437.769,394.687 434.769,394.354 432,394.5C 431.667,395.167 431.333,395.833 431,396.5C 429.204,395.233 427.371,395.233 425.5,396.5C 424.483,393.972 423.316,393.972 422,396.5C 420.667,395.833 419.333,395.167 418,394.5C 417.667,395.167 417.333,395.833 417,396.5C 415.192,396.112 413.525,396.112 412,396.5C 411.309,394.109 410.309,394.109 409,396.5C 408.333,395.833 407.667,395.167 407,394.5C 403.514,394.864 399.848,395.53 396,396.5C 376.072,395.214 355.905,395.214 335.5,396.5C 338.806,393.86 341.806,390.86 344.5,387.5C 348.082,386.939 351.248,386.605 354,386.5C 354.333,387.167 354.667,387.833 355,388.5C 356.449,387.386 357.783,386.386 359,385.5C 359.308,386.308 359.808,386.975 360.5,387.5C 362.741,386.36 364.908,386.36 367,387.5C 367.667,384.833 368.333,384.833 369,387.5C 377.188,386.979 385.521,386.979 394,387.5C 394.308,386.692 394.808,386.025 395.5,385.5C 396.696,385.846 396.696,386.346 395.5,387C 397.479,387.684 399.146,387.184 400.5,385.5C 401.833,386.833 403.167,386.833 404.5,385.5C 405.192,386.025 405.692,386.692 406,387.5C 406.626,385.009 407.459,385.009 408.5,387.5C 408.833,386.833 409.167,386.167 409.5,385.5C 411.683,387.059 413.849,387.726 416,387.5C 417.085,386.707 418.252,386.04 419.5,385.5C 421.263,385.694 423.097,385.694 425,385.5C 425.667,388.167 426.333,388.167 427,385.5C 429.264,387.417 431.764,387.417 434.5,385.5C 437.448,385.781 440.448,385.781 443.5,385.5C 446.189,385.545 447.523,386.879 447.5,389.5 Z"/></g>
<g><path style="opacity:1" fill="#3c4143" d="M 228.5,384.5 C 232.192,387.862 235.859,391.195 239.5,394.5C 235.621,393.67 231.788,394.003 228,395.5C 226.846,393.043 225.512,393.043 224,395.5C 222.667,394.833 221.333,394.167 220,393.5C 213.272,393.622 206.272,393.622 199,393.5C 197.488,395.957 196.154,395.957 195,393.5C 194.667,394.167 194.333,394.833 194,395.5C 192.57,395.306 191.07,395.306 189.5,395.5C 188.318,393.355 186.818,393.355 185,395.5C 178.025,395.319 170.358,394.986 162,394.5C 160.667,395.167 159.333,395.833 158,396.5C 157.333,395.167 156.667,395.167 156,396.5C 155.309,394.109 154.309,394.109 153,396.5C 152.333,395.833 151.667,395.167 151,394.5C 144.811,395.122 138.311,395.456 131.5,395.5C 130.262,393.786 129.595,391.786 129.5,389.5C 129.312,387.897 129.812,386.563 131,385.5C 137.248,385.751 143.581,386.084 150,386.5C 150.308,385.692 150.808,385.025 151.5,384.5C 156.801,385.636 161.801,385.636 166.5,384.5C 168.5,385.167 170.5,385.833 172.5,386.5C 173.192,385.975 173.692,385.308 174,384.5C 175.512,386.957 176.846,386.957 178,384.5C 178.689,385.357 179.522,386.023 180.5,386.5C 180.677,383.922 181.843,383.922 184,386.5C 186.333,385.5 188.667,384.5 191,383.5C 192.085,384.293 193.252,384.96 194.5,385.5C 201.246,384.336 207.913,384.336 214.5,385.5C 215.167,385.333 215.833,385.167 216.5,385C 215.304,384.346 215.304,383.846 216.5,383.5C 218.373,382.911 220.04,383.578 221.5,385.5C 223.836,385.377 226.169,385.044 228.5,384.5 Z"/></g>
<g><path style="opacity:1" fill="#373b3d" d="M 239.5,394.5 C 245.075,397.786 250.741,400.786 256.5,403.5C 250.004,402.842 243.504,402.509 237,402.5C 235.105,402.615 233.438,403.282 232,404.5C 231.309,402.109 230.309,402.109 229,404.5C 227.887,403.289 226.72,403.289 225.5,404.5C 224.808,403.975 224.308,403.308 224,402.5C 219.521,403.021 215.187,403.021 211,402.5C 209.667,403.167 208.333,403.833 207,404.5C 195.72,404.532 184.053,404.199 172,403.5C 170.501,405.756 168.834,405.756 167,403.5C 164.916,403.669 162.749,403.669 160.5,403.5C 158.941,404.074 157.441,404.74 156,405.5C 153.667,404.167 151.333,404.167 149,405.5C 148.667,404.833 148.333,404.167 148,403.5C 143.582,403.472 139.082,403.806 134.5,404.5C 132.928,401.785 131.928,398.785 131.5,395.5C 138.311,395.456 144.811,395.122 151,394.5C 151.667,395.167 152.333,395.833 153,396.5C 154.309,394.109 155.309,394.109 156,396.5C 156.667,395.167 157.333,395.167 158,396.5C 159.333,395.833 160.667,395.167 162,394.5C 170.358,394.986 178.025,395.319 185,395.5C 186.818,393.355 188.318,393.355 189.5,395.5C 191.07,395.306 192.57,395.306 194,395.5C 194.333,394.833 194.667,394.167 195,393.5C 196.154,395.957 197.488,395.957 199,393.5C 206.272,393.622 213.272,393.622 220,393.5C 221.333,394.167 222.667,394.833 224,395.5C 225.512,393.043 226.846,393.043 228,395.5C 231.788,394.003 235.621,393.67 239.5,394.5 Z"/></g>
<g><path style="opacity:1" fill="#34383a" d="M 446.5,395.5 C 445.537,400.05 444.203,404.383 442.5,408.5C 442.649,407.448 442.483,406.448 442,405.5C 440.984,406.634 440.317,406.301 440,404.5C 439.311,405.357 438.478,406.023 437.5,406.5C 436.575,405.359 435.741,405.359 435,406.5C 434.667,405.833 434.333,405.167 434,404.5C 433.047,406.592 431.714,406.925 430,405.5C 428.333,406.167 426.667,406.833 425,407.5C 424.333,406.833 423.667,406.167 423,405.5C 420.988,405.525 418.988,405.525 417,405.5C 415.739,405.759 414.739,406.426 414,407.5C 413.259,406.359 412.425,406.359 411.5,407.5C 410.184,404.972 409.017,404.972 408,407.5C 407,406.833 406,406.167 405,405.5C 404,406.833 403,406.833 402,405.5C 401.333,408.167 400.667,408.167 400,405.5C 394.092,406.648 388.259,406.648 382.5,405.5C 380.896,405.939 379.396,406.606 378,407.5C 364.384,407.278 351.051,406.945 338,406.5C 337.333,409.167 336.667,409.167 336,406.5C 334.887,407.711 333.72,407.711 332.5,406.5C 331.522,406.977 330.689,407.643 330,408.5C 329.667,407.833 329.333,407.167 329,406.5C 327.333,409.167 325.667,409.167 324,406.5C 320.667,407.833 317.333,407.833 314,406.5C 313.667,407.167 313.333,407.833 313,408.5C 311.698,407.915 310.531,407.249 309.5,406.5C 318.604,404.28 327.271,400.947 335.5,396.5C 355.905,395.214 376.072,395.214 396,396.5C 399.848,395.53 403.514,394.864 407,394.5C 407.667,395.167 408.333,395.833 409,396.5C 410.309,394.109 411.309,394.109 412,396.5C 413.525,396.112 415.192,396.112 417,396.5C 417.333,395.833 417.667,395.167 418,394.5C 419.333,395.167 420.667,395.833 422,396.5C 423.316,393.972 424.483,393.972 425.5,396.5C 427.371,395.233 429.204,395.233 431,396.5C 431.333,395.833 431.667,395.167 432,394.5C 434.769,394.354 437.769,394.687 441,395.5C 442,394.833 443,394.167 444,393.5C 444.417,394.756 445.25,395.423 446.5,395.5 Z"/></g>
<g><path style="opacity:1" fill="#000000" d="M 293.5,400.5 C 296.5,400.5 299.5,400.5 302.5,400.5C 302.5,403.5 302.5,406.5 302.5,409.5C 299.5,409.5 296.5,409.5 293.5,409.5C 293.5,406.5 293.5,403.5 293.5,400.5 Z"/></g>
<g><path style="opacity:1" fill="#2e3234" d="M 256.5,403.5 C 267.964,406.465 279.631,407.799 291.5,407.5C 291.5,408.833 291.5,410.167 291.5,411.5C 295.833,411.5 300.167,411.5 304.5,411.5C 304.5,409.833 304.5,408.167 304.5,406.5C 306.167,406.5 307.833,406.5 309.5,406.5C 310.531,407.249 311.698,407.915 313,408.5C 313.333,407.833 313.667,407.167 314,406.5C 317.333,407.833 320.667,407.833 324,406.5C 325.667,409.167 327.333,409.167 329,406.5C 329.333,407.167 329.667,407.833 330,408.5C 330.689,407.643 331.522,406.977 332.5,406.5C 333.72,407.711 334.887,407.711 336,406.5C 336.667,409.167 337.333,409.167 338,406.5C 351.051,406.945 364.384,407.278 378,407.5C 379.396,406.606 380.896,405.939 382.5,405.5C 388.259,406.648 394.092,406.648 400,405.5C 400.667,408.167 401.333,408.167 402,405.5C 403,406.833 404,406.833 405,405.5C 406,406.167 407,406.833 408,407.5C 409.017,404.972 410.184,404.972 411.5,407.5C 412.425,406.359 413.259,406.359 414,407.5C 414.739,406.426 415.739,405.759 417,405.5C 418.988,405.525 420.988,405.525 423,405.5C 423.667,406.167 424.333,406.833 425,407.5C 426.667,406.833 428.333,406.167 430,405.5C 431.714,406.925 433.047,406.592 434,404.5C 434.333,405.167 434.667,405.833 435,406.5C 435.741,405.359 436.575,405.359 437.5,406.5C 438.478,406.023 439.311,405.357 440,404.5C 440.317,406.301 440.984,406.634 442,405.5C 442.483,406.448 442.649,407.448 442.5,408.5C 442.586,409.496 442.252,410.329 441.5,411C 438.854,411.497 436.187,411.664 433.5,411.5C 433.5,412.5 433.5,413.5 433.5,414.5C 427.552,415.723 421.885,415.723 416.5,414.5C 415.252,415.04 414.085,415.707 413,416.5C 412.667,415.833 412.333,415.167 412,414.5C 410.482,414.057 409.315,414.724 408.5,416.5C 408.511,415.559 408.011,414.892 407,414.5C 406.055,414.905 405.388,415.572 405,416.5C 404.667,415.833 404.333,415.167 404,414.5C 402.112,416.922 400.112,416.922 398,414.5C 397,415.167 396,415.833 395,416.5C 389.801,416.549 384.801,416.216 380,415.5C 378,418.167 376,418.167 374,415.5C 372.467,415.944 370.967,416.277 369.5,416.5C 368.808,415.975 368.308,415.308 368,414.5C 367.196,415.804 366.029,416.471 364.5,416.5C 348.469,416.138 331.802,415.805 314.5,415.5C 312.5,416.167 310.5,416.833 308.5,417.5C 307.808,416.975 307.308,416.308 307,415.5C 304.373,416.916 301.54,417.583 298.5,417.5C 291.794,417.084 285.294,417.084 279,417.5C 278.667,416.833 278.333,416.167 278,415.5C 277.311,416.357 276.478,417.023 275.5,417.5C 272.681,417.481 269.847,417.148 267,416.5C 266.333,417.167 265.667,417.833 265,418.5C 261.098,415.998 257.098,415.998 253,418.5C 251.691,416.109 250.691,416.109 250,418.5C 249.692,417.692 249.192,417.025 248.5,416.5C 246.737,416.694 244.903,416.694 243,416.5C 242,417.167 241,417.833 240,418.5C 230.064,418.266 220.398,418.266 211,418.5C 210.309,416.109 209.309,416.109 208,418.5C 200.653,418.854 193.819,418.521 187.5,417.5C 186.522,417.977 185.689,418.643 185,419.5C 183.667,418.167 182.333,418.167 181,419.5C 179.149,417.219 177.482,417.219 176,419.5C 174.518,417.219 172.851,417.219 171,419.5C 170.667,418.833 170.333,418.167 170,417.5C 168.204,418.767 166.371,418.767 164.5,417.5C 161.352,418.212 158.186,418.879 155,419.5C 150.425,419.316 145.925,419.316 141.5,419.5C 138.384,414.93 136.05,409.93 134.5,404.5C 139.082,403.806 143.582,403.472 148,403.5C 148.333,404.167 148.667,404.833 149,405.5C 151.333,404.167 153.667,404.167 156,405.5C 157.441,404.74 158.941,404.074 160.5,403.5C 162.749,403.669 164.916,403.669 167,403.5C 168.834,405.756 170.501,405.756 172,403.5C 184.053,404.199 195.72,404.532 207,404.5C 208.333,403.833 209.667,403.167 211,402.5C 215.187,403.021 219.521,403.021 224,402.5C 224.308,403.308 224.808,403.975 225.5,404.5C 226.72,403.289 227.887,403.289 229,404.5C 230.309,402.109 231.309,402.109 232,404.5C 233.438,403.282 235.105,402.615 237,402.5C 243.504,402.509 250.004,402.842 256.5,403.5 Z"/></g>
<g><path style="opacity:1" fill="#000000" d="M 435.5,413.5 C 438.5,413.5 441.5,413.5 444.5,413.5C 444.5,416.5 444.5,419.5 444.5,422.5C 441.5,422.5 438.5,422.5 435.5,422.5C 435.5,419.5 435.5,416.5 435.5,413.5 Z"/></g>
<g><path style="opacity:1" fill="#282a2c" d="M 433.5,414.5 C 433.5,417.5 433.5,420.5 433.5,423.5C 424.999,424.792 416.499,424.792 408,423.5C 406.333,424.167 404.667,424.833 403,425.5C 402.667,424.833 402.333,424.167 402,423.5C 398.757,424.648 395.59,424.648 392.5,423.5C 391.353,423.818 390.519,424.484 390,425.5C 388.806,424.57 387.473,423.903 386,423.5C 381.915,423.669 377.749,423.669 373.5,423.5C 372.252,424.04 371.085,424.707 370,425.5C 355.501,425.481 340.501,425.148 325,424.5C 324.667,425.167 324.333,425.833 324,426.5C 322,423.833 320,423.833 318,426.5C 316.667,425.833 315.333,425.167 314,424.5C 312.667,425.833 311.333,425.833 310,424.5C 308.691,426.891 307.691,426.891 307,424.5C 300.558,425.734 293.892,426.401 287,426.5C 286.055,426.095 285.388,425.428 285,424.5C 283.488,426.957 282.154,426.957 281,424.5C 279.667,425.167 278.667,426.167 278,427.5C 276.783,426.614 275.449,425.614 274,424.5C 273.692,425.308 273.192,425.975 272.5,426.5C 265.969,426.054 259.802,425.72 254,425.5C 251.143,427.755 248.143,427.755 245,425.5C 243.204,425.913 241.537,425.913 240,425.5C 238.691,427.891 237.691,427.891 237,425.5C 235.518,427.781 233.851,427.781 232,425.5C 227.502,425.838 223.169,425.838 219,425.5C 217,426.167 215,426.833 213,427.5C 189.509,426.479 167.343,426.479 146.5,427.5C 144.336,425.178 142.669,422.511 141.5,419.5C 145.925,419.316 150.425,419.316 155,419.5C 158.186,418.879 161.352,418.212 164.5,417.5C 166.371,418.767 168.204,418.767 170,417.5C 170.333,418.167 170.667,418.833 171,419.5C 172.851,417.219 174.518,417.219 176,419.5C 177.482,417.219 179.149,417.219 181,419.5C 182.333,418.167 183.667,418.167 185,419.5C 185.689,418.643 186.522,417.977 187.5,417.5C 193.819,418.521 200.653,418.854 208,418.5C 209.309,416.109 210.309,416.109 211,418.5C 220.398,418.266 230.064,418.266 240,418.5C 241,417.833 242,417.167 243,416.5C 244.903,416.694 246.737,416.694 248.5,416.5C 249.192,417.025 249.692,417.692 250,418.5C 250.691,416.109 251.691,416.109 253,418.5C 257.098,415.998 261.098,415.998 265,418.5C 265.667,417.833 266.333,417.167 267,416.5C 269.847,417.148 272.681,417.481 275.5,417.5C 276.478,417.023 277.311,416.357 278,415.5C 278.333,416.167 278.667,416.833 279,417.5C 285.294,417.084 291.794,417.084 298.5,417.5C 301.54,417.583 304.373,416.916 307,415.5C 307.308,416.308 307.808,416.975 308.5,417.5C 310.5,416.833 312.5,416.167 314.5,415.5C 331.802,415.805 348.469,416.138 364.5,416.5C 366.029,416.471 367.196,415.804 368,414.5C 368.308,415.308 368.808,415.975 369.5,416.5C 370.967,416.277 372.467,415.944 374,415.5C 376,418.167 378,418.167 380,415.5C 384.801,416.216 389.801,416.549 395,416.5C 396,415.833 397,415.167 398,414.5C 400.112,416.922 402.112,416.922 404,414.5C 404.333,415.167 404.667,415.833 405,416.5C 405.388,415.572 406.055,414.905 407,414.5C 408.011,414.892 408.511,415.559 408.5,416.5C 409.315,414.724 410.482,414.057 412,414.5C 412.333,415.167 412.667,415.833 413,416.5C 414.085,415.707 415.252,415.04 416.5,414.5C 421.885,415.723 427.552,415.723 433.5,414.5 Z"/></g>
<g><path style="opacity:1" fill="#212324" d="M 433.5,423.5 C 434.686,425.194 434.519,426.861 433,428.5C 430.969,431.355 428.803,434.022 426.5,436.5C 426.217,435.711 425.717,435.044 425,434.5C 423.108,435.13 421.441,436.13 420,437.5C 419,436.833 418,436.167 417,435.5C 413.016,435.811 408.849,436.478 404.5,437.5C 384.436,437.118 365.27,436.785 347,436.5C 346.333,437.167 345.667,437.833 345,438.5C 319.446,437.954 294.613,437.62 270.5,437.5C 267.63,438.122 264.796,438.789 262,439.5C 260.057,437.285 258.391,437.285 257,439.5C 235.87,439.787 215.537,439.453 196,438.5C 195.05,439.022 194.216,439.689 193.5,440.5C 193.167,439.833 192.833,439.167 192.5,438.5C 191.483,441.028 190.316,441.028 189,438.5C 187.691,440.891 186.691,440.891 186,438.5C 184.667,439.167 183.333,439.833 182,440.5C 178.459,439.99 174.625,439.657 170.5,439.5C 165.907,439.379 161.574,440.046 157.5,441.5C 153.078,437.413 149.411,432.746 146.5,427.5C 167.343,426.479 189.509,426.479 213,427.5C 215,426.833 217,426.167 219,425.5C 223.169,425.838 227.502,425.838 232,425.5C 233.851,427.781 235.518,427.781 237,425.5C 237.691,427.891 238.691,427.891 240,425.5C 241.537,425.913 243.204,425.913 245,425.5C 248.143,427.755 251.143,427.755 254,425.5C 259.802,425.72 265.969,426.054 272.5,426.5C 273.192,425.975 273.692,425.308 274,424.5C 275.449,425.614 276.783,426.614 278,427.5C 278.667,426.167 279.667,425.167 281,424.5C 282.154,426.957 283.488,426.957 285,424.5C 285.388,425.428 286.055,426.095 287,426.5C 293.892,426.401 300.558,425.734 307,424.5C 307.691,426.891 308.691,426.891 310,424.5C 311.333,425.833 312.667,425.833 314,424.5C 315.333,425.167 316.667,425.833 318,426.5C 320,423.833 322,423.833 324,426.5C 324.333,425.833 324.667,425.167 325,424.5C 340.501,425.148 355.501,425.481 370,425.5C 371.085,424.707 372.252,424.04 373.5,423.5C 377.749,423.669 381.915,423.669 386,423.5C 387.473,423.903 388.806,424.57 390,425.5C 390.519,424.484 391.353,423.818 392.5,423.5C 395.59,424.648 398.757,424.648 402,423.5C 402.333,424.167 402.667,424.833 403,425.5C 404.667,424.833 406.333,424.167 408,423.5C 416.499,424.792 424.999,424.792 433.5,423.5 Z"/></g>
<g><path style="opacity:1" fill="#191b1c" d="M 426.5,436.5 C 424.547,440.12 421.881,443.12 418.5,445.5C 417.348,443.312 415.848,443.312 414,445.5C 393.659,445.837 373.659,445.504 354,444.5C 349.951,445.102 345.951,445.769 342,446.5C 324.64,446.387 307.974,446.053 292,445.5C 288.915,445.957 285.915,446.623 283,447.5C 282,446.833 281,446.167 280,445.5C 278.333,446.833 276.667,446.833 275,445.5C 274.667,446.167 274.333,446.833 274,447.5C 246.266,447.364 218.266,447.03 190,446.5C 186.882,446.79 183.882,447.456 181,448.5C 179.33,448.656 177.663,447.99 176,446.5C 172.623,448 169.623,448.333 167,447.5C 166.283,448.044 165.783,448.711 165.5,449.5C 162.5,447.167 159.833,444.5 157.5,441.5C 161.574,440.046 165.907,439.379 170.5,439.5C 174.625,439.657 178.459,439.99 182,440.5C 183.333,439.833 184.667,439.167 186,438.5C 186.691,440.891 187.691,440.891 189,438.5C 190.316,441.028 191.483,441.028 192.5,438.5C 192.833,439.167 193.167,439.833 193.5,440.5C 194.216,439.689 195.05,439.022 196,438.5C 215.537,439.453 235.87,439.787 257,439.5C 258.391,437.285 260.057,437.285 262,439.5C 264.796,438.789 267.63,438.122 270.5,437.5C 294.613,437.62 319.446,437.954 345,438.5C 345.667,437.833 346.333,437.167 347,436.5C 365.27,436.785 384.436,437.118 404.5,437.5C 408.849,436.478 413.016,435.811 417,435.5C 418,436.167 419,436.833 420,437.5C 421.441,436.13 423.108,435.13 425,434.5C 425.717,435.044 426.217,435.711 426.5,436.5 Z"/></g>
<g><path style="opacity:1" fill="#141516" d="M 418.5,445.5 C 416.5,448.167 414.167,450.5 411.5,452.5C 410.653,451.034 409.32,450.2 407.5,450C 404.574,449.782 401.74,449.282 399,448.5C 397.333,449.167 395.667,449.833 394,450.5C 374.127,449.744 354.127,449.411 334,449.5C 333.667,450.167 333.333,450.833 333,451.5C 323.294,450.668 314.627,450.668 307,451.5C 306.667,450.833 306.333,450.167 306,449.5C 305.481,450.516 304.647,451.182 303.5,451.5C 291.512,451.407 279.346,451.074 267,450.5C 264.597,453.081 262.097,453.081 259.5,450.5C 253.95,451.769 248.45,451.769 243,450.5C 242.692,451.308 242.192,451.975 241.5,452.5C 228.467,452.476 215.634,452.143 203,451.5C 202.125,453.513 200.791,453.513 199,451.5C 196.534,452.788 194.034,452.788 191.5,451.5C 190.295,453.138 188.962,453.471 187.5,452.5C 185.941,453.074 184.441,453.74 183,454.5C 180.45,454.677 178.117,454.343 176,453.5C 175.487,454.527 174.987,455.527 174.5,456.5C 171.214,454.549 168.214,452.215 165.5,449.5C 165.783,448.711 166.283,448.044 167,447.5C 169.623,448.333 172.623,448 176,446.5C 177.663,447.99 179.33,448.656 181,448.5C 183.882,447.456 186.882,446.79 190,446.5C 218.266,447.03 246.266,447.364 274,447.5C 274.333,446.833 274.667,446.167 275,445.5C 276.667,446.833 278.333,446.833 280,445.5C 281,446.167 282,446.833 283,447.5C 285.915,446.623 288.915,445.957 292,445.5C 307.974,446.053 324.64,446.387 342,446.5C 345.951,445.769 349.951,445.102 354,444.5C 373.659,445.504 393.659,445.837 414,445.5C 415.848,443.312 417.348,443.312 418.5,445.5 Z"/></g>
<g><path style="opacity:1" fill="#0b0c0d" d="M 411.5,452.5 C 405.016,457.911 398.016,462.578 390.5,466.5C 388.863,465.62 387.03,464.954 385,464.5C 368.705,465.636 352.205,465.636 335.5,464.5C 333.941,465.074 332.441,465.74 331,466.5C 312.241,465.936 293.907,465.602 276,465.5C 275.333,468.167 274.667,468.167 274,465.5C 269.135,466.235 264.468,466.235 260,465.5C 254.953,466.117 249.953,466.783 245,467.5C 244.333,466.833 243.667,466.167 243,465.5C 240.667,466.167 238.333,466.833 236,467.5C 224.902,467.666 213.902,467.333 203,466.5C 199.973,466.912 197.14,467.579 194.5,468.5C 193.85,468.196 193.183,467.863 192.5,467.5C 191.513,464.232 191.18,460.898 191.5,457.5C 186.678,456.935 182.178,457.601 178,459.5C 176.961,458.29 175.794,457.29 174.5,456.5C 174.987,455.527 175.487,454.527 176,453.5C 178.117,454.343 180.45,454.677 183,454.5C 184.441,453.74 185.941,453.074 187.5,452.5C 188.962,453.471 190.295,453.138 191.5,451.5C 194.034,452.788 196.534,452.788 199,451.5C 200.791,453.513 202.125,453.513 203,451.5C 215.634,452.143 228.467,452.476 241.5,452.5C 242.192,451.975 242.692,451.308 243,450.5C 248.45,451.769 253.95,451.769 259.5,450.5C 262.097,453.081 264.597,453.081 267,450.5C 279.346,451.074 291.512,451.407 303.5,451.5C 304.647,451.182 305.481,450.516 306,449.5C 306.333,450.167 306.667,450.833 307,451.5C 314.627,450.668 323.294,450.668 333,451.5C 333.333,450.833 333.667,450.167 334,449.5C 354.127,449.411 374.127,449.744 394,450.5C 395.667,449.833 397.333,449.167 399,448.5C 401.74,449.282 404.574,449.782 407.5,450C 409.32,450.2 410.653,451.034 411.5,452.5 Z"/></g>
<g><path style="opacity:1" fill="#000000" d="M 180.5,459.5 C 183.5,459.5 186.5,459.5 189.5,459.5C 189.5,462.5 189.5,465.5 189.5,468.5C 186.5,468.5 183.5,468.5 180.5,468.5C 180.5,465.5 180.5,462.5 180.5,459.5 Z"/></g>
<g><path style="opacity:1" fill="#040506" d="M 390.5,466.5 C 375.676,474.219 360.009,479.553 343.5,482.5C 343.5,481.167 343.5,479.833 343.5,478.5C 339.167,478.5 334.833,478.5 330.5,478.5C 330.5,480.833 330.5,483.167 330.5,485.5C 295.157,489.618 260.157,487.785 225.5,480C 214.725,477.243 204.391,473.41 194.5,468.5C 197.14,467.579 199.973,466.912 203,466.5C 213.902,467.333 224.902,467.666 236,467.5C 238.333,466.833 240.667,466.167 243,465.5C 243.667,466.167 244.333,466.833 245,467.5C 249.953,466.783 254.953,466.117 260,465.5C 264.468,466.235 269.135,466.235 274,465.5C 274.667,468.167 275.333,468.167 276,465.5C 293.907,465.602 312.241,465.936 331,466.5C 332.441,465.74 333.941,465.074 335.5,464.5C 352.205,465.636 368.705,465.636 385,464.5C 387.03,464.954 388.863,465.62 390.5,466.5 Z"/></g>
<g><path style="opacity:1" fill="#000000" d="M 332.5,480.5 C 335.5,480.5 338.5,480.5 341.5,480.5C 341.5,483.5 341.5,486.5 341.5,489.5C 338.5,489.5 335.5,489.5 332.5,489.5C 332.5,486.5 332.5,483.5 332.5,480.5 Z"/></g>
</svg>
