<svg width="98" height="24" viewBox="0 0 98 24" fill="none" xmlns="http://www.w3.org/2000/svg">
<path d="M42.3691 8.27557C42.2934 7.60322 41.9809 7.08239 41.4316 6.71307C40.8824 6.33902 40.1911 6.15199 39.3578 6.15199C38.7612 6.15199 38.2451 6.24669 37.8095 6.43608C37.3739 6.62074 37.0353 6.87642 36.7939 7.20312C36.5571 7.52509 36.4387 7.89205 36.4387 8.30398C36.4387 8.64962 36.5192 8.94792 36.6802 9.19886C36.8459 9.44981 37.0614 9.66051 37.3265 9.83097C37.5964 9.99669 37.8852 10.1364 38.193 10.25C38.5008 10.3589 38.7967 10.4489 39.0808 10.5199L40.5012 10.8892C40.9653 11.0028 41.4411 11.1567 41.9288 11.3509C42.4165 11.545 42.8687 11.8007 43.2853 12.1179C43.702 12.4351 44.0382 12.8281 44.2939 13.2969C44.5543 13.7656 44.6845 14.3267 44.6845 14.9801C44.6845 15.804 44.4714 16.5355 44.0453 17.1747C43.6239 17.8139 43.0107 18.3182 42.2058 18.6875C41.4056 19.0568 40.4373 19.2415 39.301 19.2415C38.2119 19.2415 37.2697 19.0687 36.4743 18.723C35.6788 18.3774 35.0562 17.8873 34.6064 17.2528C34.1565 16.6136 33.908 15.8561 33.8606 14.9801H36.0623C36.1049 15.5057 36.2754 15.9437 36.5737 16.294C36.8767 16.6397 37.2626 16.8977 37.7314 17.0682C38.2048 17.2339 38.7233 17.3168 39.2868 17.3168C39.907 17.3168 40.4586 17.2197 40.9416 17.0256C41.4293 16.8267 41.8128 16.5521 42.0922 16.2017C42.3715 15.8466 42.5112 15.4323 42.5112 14.9588C42.5112 14.5279 42.3881 14.1752 42.1419 13.9006C41.9004 13.6259 41.5713 13.3987 41.1547 13.2188C40.7427 13.0388 40.2763 12.8802 39.7555 12.7429L38.0368 12.2741C36.872 11.9569 35.9487 11.4905 35.2669 10.875C34.5898 10.2595 34.2512 9.44508 34.2512 8.43182C34.2512 7.59375 34.4785 6.86222 34.9331 6.23722C35.3876 5.61222 36.0031 5.12689 36.7797 4.78125C37.5562 4.43087 38.4321 4.25568 39.4075 4.25568C40.3923 4.25568 41.2612 4.4285 42.014 4.77415C42.7716 5.11979 43.3682 5.59564 43.8038 6.2017C44.2394 6.80303 44.4667 7.49432 44.4856 8.27557H42.3691ZM50.3113 19.2415C49.62 19.2415 48.995 19.1136 48.4363 18.858C47.8775 18.5975 47.4348 18.2211 47.1081 17.7287C46.7862 17.2363 46.6252 16.6326 46.6252 15.9176C46.6252 15.3021 46.7435 14.7955 46.9803 14.3977C47.217 14 47.5366 13.6851 47.9391 13.4531C48.3416 13.2211 48.7914 13.0459 49.2885 12.9276C49.7857 12.8092 50.2923 12.7192 50.8084 12.6577C51.4618 12.5819 51.9921 12.5204 52.3993 12.473C52.8065 12.4209 53.1025 12.3381 53.2871 12.2244C53.4718 12.1108 53.5641 11.9261 53.5641 11.6705V11.6207C53.5641 11.0005 53.3889 10.5199 53.0385 10.179C52.6929 9.83807 52.1768 9.66761 51.4902 9.66761C50.7753 9.66761 50.2118 9.82623 49.7999 10.1435C49.3927 10.456 49.111 10.804 48.9547 11.1875L46.959 10.733C47.1957 10.0701 47.5414 9.53504 47.9959 9.12784C48.4552 8.71591 48.9831 8.41761 49.5797 8.23295C50.1763 8.04356 50.8037 7.94886 51.4618 7.94886C51.8974 7.94886 52.3591 8.00095 52.8468 8.10511C53.3392 8.20455 53.7985 8.3892 54.2246 8.65909C54.6555 8.92898 55.0082 9.31487 55.2828 9.81676C55.5575 10.3139 55.6948 10.9602 55.6948 11.7557V19H53.6209V17.5085H53.5357C53.3984 17.7831 53.1924 18.053 52.9178 18.3182C52.6432 18.5833 52.2904 18.8035 51.8596 18.9787C51.4287 19.1539 50.9126 19.2415 50.3113 19.2415ZM50.7729 17.5369C51.36 17.5369 51.8619 17.4209 52.2786 17.1889C52.7 16.9569 53.0196 16.6539 53.2374 16.2798C53.4599 15.901 53.5712 15.4962 53.5712 15.0653V13.6591C53.4954 13.7348 53.3487 13.8059 53.1309 13.8722C52.9178 13.9337 52.6739 13.9882 52.3993 14.0355C52.1247 14.0781 51.8572 14.1184 51.5968 14.1562C51.3364 14.1894 51.1185 14.2178 50.9434 14.2415C50.5314 14.2936 50.155 14.3812 49.8141 14.5043C49.4779 14.6274 49.208 14.8049 49.0044 15.0369C48.8056 15.2642 48.7061 15.5672 48.7061 15.946C48.7061 16.4716 48.9003 16.8693 49.2885 17.1392C49.6768 17.4044 50.1716 17.5369 50.7729 17.5369ZM61.698 19.2415C61.0067 19.2415 60.3817 19.1136 59.823 18.858C59.2643 18.5975 58.8216 18.2211 58.4949 17.7287C58.1729 17.2363 58.0119 16.6326 58.0119 15.9176C58.0119 15.3021 58.1303 14.7955 58.367 14.3977C58.6038 14 58.9234 13.6851 59.3258 13.4531C59.7283 13.2211 60.1781 13.0459 60.6752 12.9276C61.1724 12.8092 61.679 12.7192 62.1951 12.6577C62.8485 12.5819 63.3788 12.5204 63.786 12.473C64.1932 12.4209 64.4892 12.3381 64.6738 12.2244C64.8585 12.1108 64.9508 11.9261 64.9508 11.6705V11.6207C64.9508 11.0005 64.7756 10.5199 64.4252 10.179C64.0796 9.83807 63.5635 9.66761 62.877 9.66761C62.162 9.66761 61.5985 9.82623 61.1866 10.1435C60.7794 10.456 60.4977 10.804 60.3414 11.1875L58.3457 10.733C58.5824 10.0701 58.9281 9.53504 59.3826 9.12784C59.8419 8.71591 60.3699 8.41761 60.9664 8.23295C61.563 8.04356 62.1904 7.94886 62.8485 7.94886C63.2842 7.94886 63.7458 8.00095 64.2335 8.10511C64.7259 8.20455 65.1852 8.3892 65.6113 8.65909C66.0422 8.92898 66.3949 9.31487 66.6696 9.81676C66.9442 10.3139 67.0815 10.9602 67.0815 11.7557V19H65.0076V17.5085H64.9224C64.7851 17.7831 64.5791 18.053 64.3045 18.3182C64.0299 18.5833 63.6771 18.8035 63.2463 18.9787C62.8154 19.1539 62.2993 19.2415 61.698 19.2415ZM62.1596 17.5369C62.7467 17.5369 63.2486 17.4209 63.6653 17.1889C64.0867 16.9569 64.4063 16.6539 64.6241 16.2798C64.8467 15.901 64.9579 15.4962 64.9579 15.0653V13.6591C64.8822 13.7348 64.7354 13.8059 64.5176 13.8722C64.3045 13.9337 64.0607 13.9882 63.786 14.0355C63.5114 14.0781 63.2439 14.1184 62.9835 14.1562C62.7231 14.1894 62.5053 14.2178 62.3301 14.2415C61.9181 14.2936 61.5417 14.3812 61.2008 14.5043C60.8646 14.6274 60.5948 14.8049 60.3912 15.0369C60.1923 15.2642 60.0929 15.5672 60.0929 15.946C60.0929 16.4716 60.287 16.8693 60.6752 17.1392C61.0635 17.4044 61.5583 17.5369 62.1596 17.5369ZM78.0847 10.7543L76.16 11.0952C76.0795 10.849 75.9516 10.6146 75.7765 10.392C75.606 10.1695 75.374 9.98722 75.0804 9.84517C74.7869 9.70312 74.4199 9.6321 73.9796 9.6321C73.3783 9.6321 72.8764 9.76705 72.4739 10.0369C72.0714 10.3021 71.8702 10.6454 71.8702 11.0668C71.8702 11.4313 72.0051 11.7249 72.275 11.9474C72.5449 12.17 72.9805 12.3523 73.5819 12.4943L75.3148 12.892C76.3186 13.1241 77.0667 13.4815 77.5591 13.9645C78.0516 14.4474 78.2978 15.0748 78.2978 15.8466C78.2978 16.5 78.1084 17.0824 77.7296 17.5938C77.3555 18.1004 76.8323 18.4981 76.16 18.7869C75.4924 19.0758 74.7182 19.2202 73.8375 19.2202C72.6159 19.2202 71.6193 18.9598 70.8475 18.4389C70.0757 17.9134 69.6022 17.1676 69.427 16.2017L71.4796 15.8892C71.6074 16.4242 71.8702 16.8291 72.2679 17.1037C72.6657 17.3736 73.1841 17.5085 73.8233 17.5085C74.5194 17.5085 75.0757 17.3641 75.4924 17.0753C75.909 16.7817 76.1174 16.4242 76.1174 16.0028C76.1174 15.6619 75.9895 15.3755 75.7338 15.1435C75.4829 14.9115 75.097 14.7363 74.5762 14.6179L72.7296 14.2131C71.7116 13.9811 70.9587 13.6117 70.4711 13.1051C69.9881 12.5985 69.7466 11.9569 69.7466 11.1804C69.7466 10.5365 69.9266 9.97301 70.2864 9.49006C70.6462 9.0071 71.1434 8.63068 71.7779 8.3608C72.4123 8.08617 73.1391 7.94886 73.9583 7.94886C75.1373 7.94886 76.0653 8.20455 76.7424 8.71591C77.4194 9.22254 77.8669 9.90199 78.0847 10.7543ZM80.6326 19V8.09091H82.7562V19H80.6326ZM81.7051 6.40767C81.3358 6.40767 81.0185 6.28456 80.7534 6.03835C80.493 5.7874 80.3627 5.48911 80.3627 5.14347C80.3627 4.79309 80.493 4.49479 80.7534 4.24858C81.0185 3.99763 81.3358 3.87216 81.7051 3.87216C82.0744 3.87216 82.3893 3.99763 82.6497 4.24858C82.9148 4.49479 83.0474 4.79309 83.0474 5.14347C83.0474 5.48911 82.9148 5.7874 82.6497 6.03835C82.3893 6.28456 82.0744 6.40767 81.7051 6.40767ZM90.2083 19.2202C89.1855 19.2202 88.293 18.9858 87.5307 18.517C86.7684 18.0483 86.1766 17.3925 85.7551 16.5497C85.3337 15.7069 85.123 14.7221 85.123 13.5952C85.123 12.4635 85.3337 11.474 85.7551 10.6264C86.1766 9.77888 86.7684 9.12074 87.5307 8.65199C88.293 8.18324 89.1855 7.94886 90.2083 7.94886C91.231 7.94886 92.1235 8.18324 92.8858 8.65199C93.6481 9.12074 94.24 9.77888 94.6614 10.6264C95.0828 11.474 95.2935 12.4635 95.2935 13.5952C95.2935 14.7221 95.0828 15.7069 94.6614 16.5497C94.24 17.3925 93.6481 18.0483 92.8858 18.517C92.1235 18.9858 91.231 19.2202 90.2083 19.2202ZM90.2154 17.4375C90.8783 17.4375 91.4275 17.2623 91.8631 16.9119C92.2987 16.5616 92.6207 16.0952 92.829 15.5128C93.0421 14.9304 93.1486 14.2888 93.1486 13.5881C93.1486 12.892 93.0421 12.2528 92.829 11.6705C92.6207 11.0833 92.2987 10.6122 91.8631 10.2571C91.4275 9.90199 90.8783 9.72443 90.2154 9.72443C89.5478 9.72443 88.9938 9.90199 88.5534 10.2571C88.1178 10.6122 87.7935 11.0833 87.5804 11.6705C87.3721 12.2528 87.2679 12.892 87.2679 13.5881C87.2679 14.2888 87.3721 14.9304 87.5804 15.5128C87.7935 16.0952 88.1178 16.5616 88.5534 16.9119C88.9938 17.2623 89.5478 17.4375 90.2154 17.4375Z" fill="white"/>
<circle cx="8.5" cy="11.5" r="8.5" fill="white"/>
</svg>
